<?xml version="1.0" encoding="utf-8"?>
<!-- Generator: Adobe Illustrator 15.0.0, SVG Export Plug-In . SVG Version: 6.00 Build 0)  -->
<!DOCTYPE svg PUBLIC "-//W3C//DTD SVG 1.1//EN" "http://www.w3.org/Graphics/SVG/1.1/DTD/svg11.dtd">
<svg version="1.1" id="Layer_1" xmlns="http://www.w3.org/2000/svg" xmlns:xlink="http://www.w3.org/1999/xlink" x="0px" y="0px"
	 width="200.667px" height="40.667px" viewBox="0 0 200.667 40.667" enable-background="new 0 0 200.667 40.667"
	 xml:space="preserve">
<g>
	<path fill="#F9FAFD" d="M10.115,20.264l-1.178,0.009c-0.826,0.012-1.43,0.029-1.811,0.053c-0.34,0.029-0.583,0.044-0.729,0.044
		c-0.357,0-0.642-0.091-0.853-0.272c-0.205-0.182-0.308-0.398-0.308-0.65c0-0.164,0.038-0.293,0.114-0.387s0.261-0.24,0.554-0.439
		c0.17-0.117,0.287-0.3,0.352-0.549s0.135-0.784,0.211-1.604c0.111-1.277,0.167-2.851,0.167-4.72c0-0.686-0.045-1.141-0.136-1.367
		S6.195,9.969,5.861,9.823c-0.387-0.164-0.58-0.404-0.58-0.721c0-0.258,0.116-0.469,0.347-0.633s0.529-0.246,0.892-0.246
		c0.199,0,0.454,0.009,0.765,0.026c0.516,0.023,1.072,0.035,1.67,0.035c0.439,0,1.304-0.018,2.593-0.053
		c0.404-0.012,0.771-0.018,1.099-0.018c0.779,0,1.408,0.063,1.885,0.189s0.892,0.338,1.244,0.637
		c0.574,0.486,0.861,1.137,0.861,1.951c0,0.404-0.085,0.798-0.255,1.182s-0.398,0.69-0.686,0.918
		c-0.205,0.164-0.308,0.313-0.308,0.448c0,0.146,0.123,0.27,0.369,0.369c0.48,0.193,0.917,0.519,1.31,0.976
		c0.404,0.475,0.606,1.069,0.606,1.784c0,0.844-0.308,1.614-0.923,2.312c-0.814,0.92-2.019,1.38-3.612,1.38
		c-0.217,0-0.75-0.015-1.6-0.044C10.766,20.288,10.291,20.27,10.115,20.264z M10.722,10.728v1.811c0,0.287,0.037,0.489,0.11,0.606
		s0.201,0.176,0.382,0.176c0.434,0,0.753-0.133,0.958-0.4s0.308-0.684,0.308-1.252c0-0.551-0.105-0.977-0.316-1.279
		s-0.51-0.453-0.896-0.453c-0.205,0-0.347,0.057-0.426,0.171S10.722,10.429,10.722,10.728z M10.722,15.791v0.835
		c0,0.768,0.056,1.277,0.167,1.529s0.337,0.378,0.677,0.378c0.891,0,1.336-0.521,1.336-1.564c0-1.301-0.498-1.951-1.494-1.951
		c-0.258,0-0.437,0.056-0.536,0.167S10.722,15.498,10.722,15.791z"/>
	<path fill="#F9FAFD" d="M23.097,8.698l4.377,3.832c0.41,0.357,0.706,0.536,0.888,0.536c0.305,0,0.457-0.325,0.457-0.976
		c0-0.738-0.044-1.242-0.132-1.512s-0.272-0.472-0.554-0.606c-0.229-0.111-0.39-0.23-0.483-0.356s-0.141-0.289-0.141-0.488
		c0-0.492,0.337-0.809,1.011-0.949c0.275-0.059,0.756-0.088,1.441-0.088c0.885,0,1.497,0.053,1.837,0.158
		c0.539,0.164,0.809,0.475,0.809,0.932c0,0.381-0.22,0.668-0.659,0.861c-0.176,0.076-0.296,0.144-0.36,0.202
		s-0.12,0.146-0.167,0.264c-0.158,0.387-0.24,1.119-0.246,2.197v2.865c0,0.439,0.003,1.04,0.009,1.802
		c0.006,1.031-0.056,1.775-0.185,2.232c-0.158,0.568-0.445,0.853-0.861,0.853c-0.182,0-0.338-0.038-0.47-0.114
		s-0.35-0.252-0.655-0.527L23.8,15.149c-0.363-0.328-0.665-0.492-0.905-0.492c-0.357,0-0.536,0.495-0.536,1.485
		c0,0.814,0.045,1.371,0.136,1.67s0.277,0.519,0.558,0.659c0.393,0.193,0.589,0.445,0.589,0.756c0,0.814-0.876,1.222-2.628,1.222
		c-0.791,0-1.405-0.104-1.841-0.312s-0.655-0.502-0.655-0.883c0-0.199,0.041-0.349,0.123-0.448s0.267-0.234,0.554-0.404
		c0.275-0.164,0.442-0.454,0.501-0.87c0.1-0.756,0.149-1.843,0.149-3.261c0-1.512-0.088-2.613-0.264-3.305
		c-0.064-0.252-0.146-0.439-0.246-0.563s-0.264-0.24-0.492-0.352c-0.264-0.129-0.447-0.255-0.549-0.378S18.14,9.401,18.14,9.225
		c0-0.563,0.483-0.917,1.45-1.063c0.328-0.047,0.902-0.07,1.723-0.07c0.469,0,0.81,0.037,1.024,0.11S22.804,8.44,23.097,8.698z"/>
	<path fill="#F9FAFD" d="M43.153,7.801c0.814,0,1.515,0.163,2.101,0.488s0.879,0.713,0.879,1.165c0,0.258-0.101,0.489-0.303,0.694
		s-0.429,0.308-0.681,0.308c-0.111,0-0.204-0.018-0.277-0.053s-0.268-0.161-0.584-0.378c-0.275-0.188-0.563-0.281-0.861-0.281
		s-0.546,0.111-0.743,0.334s-0.294,0.501-0.294,0.835c0,0.457,0.176,0.779,0.527,0.967c0.094,0.047,0.36,0.1,0.8,0.158
		c0.357,0.041,0.536,0.284,0.536,0.729c0,0.48-0.196,0.835-0.589,1.063c-0.176,0.1-0.501,0.182-0.976,0.246
		c-0.275,0.041-0.413,0.308-0.413,0.8c0,0.586,0.185,1.187,0.554,1.802c0.34,0.557,0.779,0.99,1.318,1.301
		c0.492,0.287,0.999,0.431,1.521,0.431c0.709,0,1.333-0.211,1.872-0.633c0.486-0.381,0.729-0.861,0.729-1.441
		c0-0.281-0.11-0.523-0.33-0.725s-0.485-0.303-0.795-0.303c-0.48,0-0.896,0.299-1.248,0.896c-0.152,0.258-0.311,0.387-0.475,0.387
		c-0.211,0-0.393-0.125-0.545-0.374s-0.229-0.541-0.229-0.875c0-0.715,0.253-1.354,0.76-1.916s1.241-1.02,2.202-1.371
		c0.773-0.287,1.248-0.513,1.424-0.677c0.205-0.188,0.308-0.387,0.308-0.598c0-0.117-0.041-0.22-0.123-0.308
		s-0.179-0.132-0.29-0.132c-0.047,0-0.152,0.032-0.316,0.097c-0.035,0.012-0.076,0.018-0.123,0.018c-0.1,0-0.186-0.037-0.259-0.11
		s-0.11-0.163-0.11-0.268c0-0.252,0.12-0.489,0.36-0.712c0.217-0.205,0.501-0.369,0.853-0.492s0.706-0.185,1.063-0.185
		c0.65,0,1.219,0.167,1.705,0.501c0.275,0.188,0.492,0.438,0.65,0.751s0.237,0.643,0.237,0.989c0,0.51-0.17,1.002-0.51,1.477
		s-0.809,0.87-1.406,1.187c-0.428,0.234-0.642,0.437-0.642,0.606c0,0.123,0.144,0.272,0.431,0.448
		c0.264,0.164,0.473,0.388,0.628,0.672s0.233,0.59,0.233,0.918c0,0.551-0.211,1.113-0.633,1.688
		c-0.627,0.861-1.579,1.526-2.856,1.995c-1.061,0.393-2.256,0.589-3.586,0.589c-1.752,0-3.249-0.325-4.491-0.976
		c-0.896-0.463-1.591-1.14-2.083-2.03c-0.322-0.58-0.483-1.198-0.483-1.854c0-0.709,0.231-1.315,0.694-1.819
		c0.275-0.305,0.565-0.533,0.87-0.686c0.217-0.111,0.325-0.22,0.325-0.325c0-0.053-0.029-0.129-0.088-0.229
		c-0.357-0.615-0.536-1.137-0.536-1.564c0-0.434,0.125-0.863,0.374-1.288s0.584-0.781,1.006-1.068
		c0.393-0.264,0.853-0.475,1.38-0.633S42.655,7.801,43.153,7.801z"/>
	<path fill="#F9FAFD" d="M63.597,15.228c-0.223,0-0.365,0.067-0.426,0.202s-0.092,0.448-0.092,0.94c0,0.744,0.047,1.324,0.141,1.74
		c0.029,0.117,0.073,0.208,0.132,0.272s0.17,0.144,0.334,0.237c0.352,0.193,0.527,0.448,0.527,0.765
		c0,0.387-0.245,0.661-0.734,0.822s-1.317,0.242-2.483,0.242c-2.168,0-3.252-0.41-3.252-1.23c0-0.141,0.032-0.253,0.097-0.338
		s0.211-0.204,0.439-0.356c0.258-0.17,0.432-0.371,0.523-0.602s0.154-0.631,0.189-1.2c0.029-0.416,0.044-1.907,0.044-4.474
		c0-0.814-0.041-1.368-0.123-1.661s-0.258-0.507-0.527-0.642c-0.258-0.123-0.431-0.236-0.519-0.338s-0.132-0.236-0.132-0.4
		c0-0.217,0.083-0.406,0.25-0.567s0.4-0.28,0.699-0.356c0.252-0.064,0.598-0.097,1.037-0.097c0.193,0,0.677,0.029,1.45,0.088
		c0.146,0.012,0.378,0.018,0.694,0.018c0.527,0,1.23-0.035,2.109-0.105c0.557-0.041,0.946-0.062,1.169-0.062
		c1.254,0,2.291,0.302,3.111,0.905c0.738,0.545,1.107,1.301,1.107,2.268c0,0.539-0.129,1.03-0.387,1.472s-0.612,0.775-1.063,0.998
		c-0.188,0.094-0.281,0.205-0.281,0.334c0,0.17,0.144,0.308,0.431,0.413c0.615,0.223,1.066,0.56,1.354,1.011
		s0.492,1.143,0.615,2.074c0.053,0.387,0.129,0.637,0.229,0.751s0.331,0.224,0.694,0.33c0.111,0.035,0.205,0.11,0.281,0.224
		s0.114,0.242,0.114,0.382c0,0.182-0.07,0.365-0.211,0.549s-0.322,0.33-0.545,0.435c-0.492,0.229-1.166,0.343-2.021,0.343
		c-1.143,0-1.96-0.302-2.452-0.905c-0.223-0.27-0.412-0.609-0.567-1.02s-0.338-1.049-0.549-1.916
		c-0.135-0.557-0.306-0.949-0.514-1.178S63.983,15.246,63.597,15.228z M63.087,10.746l-0.097,2.048c0,0.018,0,0.044,0,0.079
		c0,0.211,0.031,0.352,0.092,0.422s0.186,0.105,0.374,0.105c0.516,0,0.891-0.133,1.125-0.4s0.352-0.693,0.352-1.279
		c0-1.131-0.401-1.696-1.204-1.696c-0.229,0-0.39,0.053-0.483,0.158S63.099,10.476,63.087,10.746z"/>
	<path fill="#F9FAFD" d="M76.895,11.51c1.02,0,1.884,0.258,2.593,0.773c0.375,0.275,0.637,0.59,0.787,0.945s0.224,0.842,0.224,1.463
		l-0.018,1.31c0,0.908,0.064,1.497,0.193,1.767c0.064,0.129,0.126,0.211,0.185,0.246s0.182,0.067,0.369,0.097
		s0.281,0.152,0.281,0.369c0,0.281-0.113,0.574-0.338,0.879s-0.517,0.56-0.875,0.765c-0.439,0.258-0.899,0.387-1.38,0.387
		c-0.615,0-1.102-0.211-1.459-0.633c-0.123-0.152-0.237-0.229-0.343-0.229c-0.117,0-0.272,0.073-0.466,0.22
		c-0.586,0.428-1.251,0.642-1.995,0.642c-0.768,0-1.389-0.164-1.863-0.492c-0.311-0.217-0.557-0.5-0.738-0.848
		s-0.272-0.713-0.272-1.094c0-0.609,0.246-1.148,0.738-1.617c0.768-0.738,1.916-1.11,3.445-1.116c0.34,0,0.554-0.034,0.642-0.101
		s0.132-0.224,0.132-0.47c0-0.621-0.064-1.071-0.193-1.349s-0.34-0.417-0.633-0.417c-0.176,0-0.333,0.053-0.47,0.158
		s-0.309,0.299-0.514,0.58c-0.521,0.744-1.066,1.116-1.635,1.116c-0.287,0-0.521-0.085-0.703-0.255s-0.272-0.393-0.272-0.668
		c0-0.281,0.113-0.563,0.338-0.844s0.532-0.527,0.918-0.738C74.633,11.792,75.74,11.51,76.895,11.51z M76.306,16.599
		c-0.258,0-0.482,0.105-0.672,0.316s-0.286,0.463-0.286,0.756c0,0.281,0.067,0.508,0.202,0.681s0.313,0.259,0.536,0.259
		c0.469,0,0.703-0.396,0.703-1.187c0-0.322-0.034-0.539-0.101-0.65S76.493,16.605,76.306,16.599z"/>
	<path fill="#F9FAFD" d="M92.741,14.762l0.123,3.094c0.012,0.234,0.048,0.407,0.11,0.519s0.242,0.325,0.541,0.642
		c0.088,0.094,0.132,0.226,0.132,0.396c0,0.387-0.231,0.656-0.694,0.809s-1.289,0.229-2.479,0.229c-0.809,0-1.38-0.07-1.714-0.211
		c-0.346-0.146-0.519-0.384-0.519-0.712c0-0.117,0.018-0.204,0.053-0.259s0.152-0.192,0.352-0.409
		c0.234-0.246,0.352-1.066,0.352-2.461c0-0.809-0.094-1.406-0.281-1.793c-0.152-0.311-0.434-0.466-0.844-0.466
		c-0.393,0-0.662,0.126-0.809,0.378s-0.22,0.709-0.22,1.371v1.74c0,0.346,0.022,0.583,0.066,0.712s0.189,0.378,0.435,0.747
		c0.064,0.105,0.097,0.226,0.097,0.36c0,0.346-0.24,0.601-0.721,0.765s-1.23,0.246-2.25,0.246c-1.629,0-2.443-0.337-2.443-1.011
		c0-0.141,0.025-0.248,0.075-0.321s0.168-0.177,0.356-0.312c0.152-0.111,0.249-0.239,0.29-0.382s0.079-0.497,0.114-1.059
		c0.041-0.668,0.062-1.368,0.062-2.101c0-0.404-0.031-0.669-0.092-0.795s-0.239-0.28-0.532-0.461
		c-0.252-0.158-0.378-0.352-0.378-0.58c0-0.234,0.103-0.426,0.308-0.576s0.627-0.338,1.266-0.567
		c0.563-0.199,1.104-0.368,1.626-0.505s0.879-0.207,1.072-0.207c0.176,0,0.324,0.064,0.444,0.193s0.18,0.281,0.18,0.457
		c0,0.018-0.003,0.091-0.009,0.22c-0.006,0.047-0.009,0.088-0.009,0.123c0,0.281,0.117,0.422,0.352,0.422
		c0.141,0,0.29-0.111,0.448-0.334c0.504-0.727,1.236-1.09,2.197-1.09c0.738,0,1.371,0.193,1.898,0.58
		c0.369,0.275,0.627,0.599,0.773,0.971S92.706,14.042,92.741,14.762z"/>
	<path fill="#F9FAFD" d="M99.175,11.51c1.02,0,1.884,0.258,2.593,0.773c0.375,0.275,0.637,0.59,0.787,0.945s0.224,0.842,0.224,1.463
		l-0.018,1.31c0,0.908,0.064,1.497,0.193,1.767c0.064,0.129,0.126,0.211,0.185,0.246s0.182,0.067,0.369,0.097
		s0.281,0.152,0.281,0.369c0,0.281-0.113,0.574-0.338,0.879s-0.517,0.56-0.875,0.765c-0.439,0.258-0.899,0.387-1.38,0.387
		c-0.615,0-1.102-0.211-1.459-0.633c-0.123-0.152-0.237-0.229-0.343-0.229c-0.117,0-0.272,0.073-0.466,0.22
		c-0.586,0.428-1.251,0.642-1.995,0.642c-0.768,0-1.389-0.164-1.863-0.492c-0.311-0.217-0.557-0.5-0.738-0.848
		s-0.272-0.713-0.272-1.094c0-0.609,0.246-1.148,0.738-1.617c0.768-0.738,1.916-1.11,3.445-1.116c0.34,0,0.554-0.034,0.642-0.101
		s0.132-0.224,0.132-0.47c0-0.621-0.064-1.071-0.193-1.349s-0.34-0.417-0.633-0.417c-0.176,0-0.333,0.053-0.47,0.158
		s-0.309,0.299-0.514,0.58c-0.521,0.744-1.066,1.116-1.635,1.116c-0.287,0-0.521-0.085-0.703-0.255s-0.272-0.393-0.272-0.668
		c0-0.281,0.113-0.563,0.338-0.844s0.532-0.527,0.918-0.738C96.913,11.792,98.021,11.51,99.175,11.51z M98.586,16.599
		c-0.258,0-0.482,0.105-0.672,0.316s-0.286,0.463-0.286,0.756c0,0.281,0.067,0.508,0.202,0.681s0.313,0.259,0.536,0.259
		c0.469,0,0.703-0.396,0.703-1.187c0-0.322-0.034-0.539-0.101-0.65S98.773,16.605,98.586,16.599z"/>
	<path fill="#F9FAFD" d="M120.233,14.2l1.661,3.56c0.158,0.328,0.29,0.543,0.396,0.646s0.267,0.171,0.483,0.207
		c0.422,0.064,0.633,0.278,0.633,0.642c0,0.428-0.258,0.735-0.773,0.923s-1.359,0.281-2.531,0.281c-1.324,0-2.306-0.056-2.944-0.167
		c-0.293-0.053-0.526-0.16-0.699-0.321s-0.259-0.356-0.259-0.584c0-0.176,0.045-0.312,0.136-0.409s0.259-0.186,0.505-0.268
		c0.275-0.094,0.413-0.252,0.413-0.475c0-0.393-0.237-0.624-0.712-0.694c-0.51-0.07-1.228-0.105-2.153-0.105
		c-0.779,0-1.245,0.047-1.397,0.141c-0.094,0.059-0.176,0.164-0.246,0.316s-0.105,0.299-0.105,0.439c0,0.129,0.025,0.212,0.075,0.25
		s0.212,0.101,0.488,0.189c0.357,0.105,0.536,0.316,0.536,0.633c0,0.697-0.835,1.046-2.505,1.046c-0.949,0-1.646-0.064-2.092-0.193
		c-0.41-0.123-0.615-0.393-0.615-0.809c0-0.182,0.045-0.322,0.136-0.422s0.253-0.19,0.488-0.272
		c0.381-0.135,0.669-0.324,0.866-0.567s0.476-0.763,0.839-1.56l1.239-2.716c0.457-0.996,0.763-1.742,0.918-2.237
		s0.236-0.98,0.242-1.455c0.006-0.504,0.037-0.854,0.092-1.05s0.18-0.388,0.374-0.576c0.404-0.41,0.92-0.615,1.547-0.615
		c0.592,0,1.157,0.231,1.696,0.694C117.714,9.304,118.804,11.147,120.233,14.2z M114.116,15.307h1.723
		c0.316,0,0.475-0.07,0.475-0.211c0-0.193-0.22-0.668-0.659-1.424c-0.199-0.346-0.352-0.577-0.457-0.694s-0.217-0.176-0.334-0.176
		c-0.211,0-0.387,0.196-0.527,0.589c-0.023,0.053-0.108,0.261-0.255,0.624c-0.246,0.598-0.369,0.955-0.369,1.072
		C113.712,15.234,113.847,15.307,114.116,15.307z"/>
	<path fill="#F9FAFD" d="M128.759,13.303v2.821c0,1.248,0.02,1.975,0.057,2.18c0.039,0.205,0.184,0.363,0.436,0.475
		c0.217,0.094,0.361,0.182,0.436,0.264c0.072,0.082,0.109,0.199,0.109,0.352c0,0.193-0.068,0.369-0.207,0.527
		c-0.137,0.158-0.32,0.27-0.549,0.334c-0.422,0.129-1.134,0.193-2.136,0.193c-1.131,0-1.925-0.085-2.382-0.255
		c-0.211-0.076-0.384-0.195-0.519-0.356s-0.202-0.33-0.202-0.505c0-0.141,0.037-0.249,0.11-0.325s0.233-0.167,0.479-0.272
		c0.229-0.1,0.369-0.372,0.422-0.817c0.094-0.762,0.141-1.846,0.141-3.252c0-1.43-0.041-2.35-0.123-2.76s-0.287-0.715-0.615-0.914
		c-0.246-0.141-0.415-0.274-0.505-0.4s-0.136-0.28-0.136-0.461c0-0.287,0.138-0.538,0.413-0.751s0.715-0.412,1.318-0.593
		c0.404-0.123,0.929-0.24,1.573-0.352s1.113-0.167,1.406-0.167c0.463,0,0.694,0.287,0.694,0.861c0,0.188-0.029,0.618-0.088,1.292
		C128.814,11.469,128.771,12.43,128.759,13.303z"/>
	<path fill="#F9FAFD" d="M134.577,11.581c0.334,0,0.501,0.237,0.501,0.712c0,0.006,0,0.056,0,0.149
		c-0.006,0.094-0.009,0.17-0.009,0.229c0,0.316,0.094,0.475,0.281,0.475c0.1,0,0.255-0.126,0.466-0.378
		c0.316-0.363,0.715-0.652,1.195-0.866s0.973-0.321,1.477-0.321c0.979,0,1.658,0.357,2.039,1.072
		c0.146,0.264,0.267,0.396,0.36,0.396c0.064,0,0.217-0.117,0.457-0.352c0.762-0.744,1.626-1.116,2.593-1.116
		c0.756,0,1.374,0.208,1.854,0.624c0.504,0.434,0.756,1.084,0.756,1.951c0,0.188-0.006,0.504-0.018,0.949
		c-0.012,0.152-0.018,0.612-0.018,1.38c0,0.492-0.003,0.838-0.009,1.037c-0.006,0.123-0.009,0.211-0.009,0.264
		c0,0.375,0.117,0.703,0.352,0.984c0.141,0.17,0.227,0.283,0.26,0.338c0.031,0.056,0.048,0.13,0.048,0.224
		c0,0.75-0.882,1.125-2.646,1.125c-0.779,0-1.408-0.094-1.885-0.281c-0.479-0.188-0.717-0.434-0.717-0.738
		c0-0.117,0.016-0.207,0.049-0.268c0.031-0.062,0.145-0.224,0.338-0.488c0.182-0.24,0.272-1.04,0.272-2.399
		c0-0.791-0.056-1.342-0.167-1.652c-0.129-0.369-0.387-0.554-0.773-0.554c-0.193,0-0.365,0.06-0.514,0.18
		c-0.15,0.12-0.248,0.271-0.295,0.453c-0.053,0.211-0.082,0.773-0.088,1.688c0.018,0.984,0.049,1.582,0.092,1.793
		c0.045,0.211,0.192,0.504,0.444,0.879c0.059,0.088,0.088,0.199,0.088,0.334c0,0.697-0.911,1.046-2.733,1.046
		c-1.096,0-1.834-0.082-2.215-0.246c-0.305-0.129-0.457-0.357-0.457-0.686c0-0.146,0.02-0.249,0.057-0.308
		c0.039-0.059,0.169-0.193,0.392-0.404c0.129-0.123,0.212-0.239,0.251-0.347c0.037-0.108,0.065-0.306,0.083-0.593
		c0.041-0.645,0.062-1.295,0.062-1.951c0-1.148-0.293-1.723-0.879-1.723c-0.439,0-0.7,0.246-0.782,0.738
		c-0.07,0.463-0.105,1.125-0.105,1.986c0,0.645,0.013,1.066,0.04,1.266c0.025,0.199,0.098,0.407,0.215,0.624
		c0.141,0.252,0.211,0.457,0.211,0.615c0,0.381-0.267,0.645-0.8,0.791c-0.58,0.158-1.219,0.237-1.916,0.237
		c-0.902,0-1.564-0.072-1.986-0.215s-0.633-0.371-0.633-0.681c0-0.117,0.028-0.217,0.083-0.299c0.057-0.082,0.184-0.211,0.383-0.387
		c0.264-0.24,0.416-0.571,0.457-0.993c0.064-0.727,0.097-1.479,0.097-2.259c0-0.557-0.028-0.945-0.083-1.165
		c-0.057-0.22-0.175-0.397-0.356-0.532c-0.176-0.135-0.288-0.237-0.339-0.308c-0.049-0.07-0.074-0.167-0.074-0.29
		c0-0.393,0.308-0.703,0.923-0.932C132.729,11.856,133.839,11.586,134.577,11.581z"/>
	<path fill="#F9FAFD" d="M152.56,12.125v5.106c0,0.404,0.037,0.7,0.109,0.888c0.074,0.188,0.222,0.36,0.444,0.519
		c0.182,0.129,0.304,0.239,0.364,0.33c0.063,0.091,0.093,0.207,0.093,0.347c0,0.756-0.958,1.134-2.874,1.134
		c-1.031,0-1.849-0.082-2.452-0.246c-0.205-0.059-0.37-0.161-0.497-0.308c-0.125-0.146-0.188-0.313-0.188-0.501
		c0-0.158,0.032-0.281,0.097-0.369s0.229-0.229,0.492-0.422c0.182-0.135,0.311-0.354,0.387-0.659s0.114-0.759,0.114-1.362
		c0-0.193-0.013-0.555-0.04-1.085c-0.025-0.53-0.045-0.839-0.057-0.927c-0.035-0.24-0.199-0.425-0.492-0.554
		c-0.363-0.158-0.545-0.393-0.545-0.703c0-0.369,0.237-0.645,0.712-0.826c0.656-0.252,1.359-0.466,2.109-0.642
		s1.33-0.264,1.74-0.264C152.398,11.581,152.56,11.762,152.56,12.125z M150.819,8.276c0.51,0,0.914,0.095,1.213,0.286
		s0.448,0.447,0.448,0.769c0,0.451-0.226,0.809-0.677,1.072c-0.715,0.416-1.579,0.624-2.593,0.624c-0.428,0-0.768-0.082-1.02-0.246
		c-0.34-0.211-0.51-0.504-0.51-0.879c0-0.504,0.36-0.899,1.081-1.187C149.495,8.422,150.181,8.276,150.819,8.276z"/>
	<path fill="#F9FAFD" d="M158.193,11.572c0.311,0,0.499,0.044,0.567,0.132c0.066,0.088,0.127,0.369,0.18,0.844
		c0.029,0.258,0.12,0.387,0.272,0.387c0.117,0,0.229-0.085,0.334-0.255c0.469-0.732,1.081-1.099,1.837-1.099
		c0.533,0,0.97,0.173,1.31,0.519c0.164,0.17,0.299,0.388,0.404,0.655s0.158,0.523,0.158,0.769c0,0.275-0.064,0.558-0.193,0.848
		s-0.296,0.529-0.501,0.716c-0.375,0.357-0.835,0.536-1.38,0.536c-0.299,0-0.55-0.053-0.751-0.158
		c-0.203-0.105-0.468-0.319-0.796-0.642c-0.123-0.123-0.237-0.185-0.343-0.185c-0.164,0-0.271,0.092-0.32,0.277
		c-0.051,0.185-0.075,0.573-0.075,1.165c0,0.885,0.032,1.488,0.097,1.811c0.041,0.176,0.098,0.297,0.172,0.365
		c0.072,0.067,0.229,0.136,0.47,0.207c0.527,0.158,0.791,0.434,0.791,0.826c0,0.24-0.085,0.45-0.255,0.628s-0.396,0.297-0.677,0.356
		c-0.563,0.117-1.389,0.176-2.479,0.176c-1.037,0-1.825-0.091-2.364-0.272c-0.48-0.164-0.721-0.448-0.721-0.853
		c0-0.305,0.176-0.577,0.527-0.817c0.17-0.111,0.287-0.212,0.352-0.303s0.108-0.215,0.132-0.374
		c0.094-0.533,0.141-1.521,0.141-2.962c0-0.264-0.029-0.453-0.088-0.567s-0.176-0.207-0.352-0.277
		c-0.416-0.164-0.624-0.401-0.624-0.712c0-0.281,0.144-0.523,0.431-0.725s0.768-0.403,1.441-0.602
		C156.793,11.715,157.561,11.578,158.193,11.572z"/>
	<path fill="#F9FAFD" d="M168.556,11.51c1.02,0,1.884,0.258,2.593,0.773c0.375,0.275,0.638,0.59,0.786,0.945
		c0.15,0.354,0.225,0.842,0.225,1.463l-0.018,1.31c0,0.908,0.064,1.497,0.193,1.767c0.064,0.129,0.126,0.211,0.185,0.246
		s0.182,0.067,0.369,0.097s0.281,0.152,0.281,0.369c0,0.281-0.112,0.574-0.339,0.879c-0.225,0.305-0.517,0.56-0.874,0.765
		c-0.439,0.258-0.899,0.387-1.38,0.387c-0.615,0-1.102-0.211-1.459-0.633c-0.123-0.152-0.237-0.229-0.343-0.229
		c-0.117,0-0.272,0.073-0.466,0.22c-0.586,0.428-1.251,0.642-1.995,0.642c-0.768,0-1.389-0.164-1.863-0.492
		c-0.311-0.217-0.557-0.5-0.738-0.848s-0.272-0.713-0.272-1.094c0-0.609,0.246-1.148,0.738-1.617
		c0.768-0.738,1.916-1.11,3.445-1.116c0.34,0,0.554-0.034,0.642-0.101s0.132-0.224,0.132-0.47c0-0.621-0.064-1.071-0.193-1.349
		s-0.34-0.417-0.633-0.417c-0.176,0-0.332,0.053-0.471,0.158c-0.137,0.105-0.309,0.299-0.514,0.58
		c-0.521,0.744-1.066,1.116-1.635,1.116c-0.287,0-0.521-0.085-0.703-0.255s-0.272-0.393-0.272-0.668
		c0-0.281,0.112-0.563,0.339-0.844c0.225-0.281,0.531-0.527,0.918-0.738C166.294,11.792,167.401,11.51,168.556,11.51z
		 M167.967,16.599c-0.258,0-0.481,0.105-0.673,0.316c-0.189,0.211-0.285,0.463-0.285,0.756c0,0.281,0.067,0.508,0.202,0.681
		s0.313,0.259,0.536,0.259c0.469,0,0.703-0.396,0.703-1.187c0-0.322-0.033-0.539-0.102-0.65
		C168.282,16.664,168.154,16.605,167.967,16.599z"/>
	<path fill="#F9FAFD" d="M178.628,8.707l-0.114,3.683c-0.012,0.439,0.123,0.659,0.404,0.659c0.141,0,0.278-0.097,0.413-0.29
		c0.568-0.826,1.327-1.239,2.276-1.239c0.932,0,1.673,0.284,2.224,0.853c0.246,0.252,0.42,0.551,0.523,0.896
		c0.102,0.346,0.159,0.841,0.171,1.485l0.079,3.173c0.006,0.275,0.043,0.478,0.109,0.606c0.068,0.129,0.225,0.29,0.471,0.483
		c0.17,0.135,0.255,0.296,0.255,0.483c0,0.633-0.955,0.949-2.865,0.949c-1.699,0-2.549-0.296-2.549-0.888
		c0-0.1,0.015-0.176,0.044-0.229s0.132-0.193,0.308-0.422c0.246-0.322,0.369-1.128,0.369-2.417c0-0.779-0.073-1.348-0.22-1.705
		c-0.193-0.486-0.539-0.729-1.037-0.729c-0.357,0-0.621,0.129-0.791,0.387c-0.123,0.188-0.185,0.539-0.185,1.055v1.696
		c0.041,0.75,0.076,1.175,0.105,1.274s0.164,0.284,0.404,0.554c0.111,0.123,0.167,0.267,0.167,0.431
		c0,0.662-0.861,0.993-2.584,0.993c-2.016,0-3.023-0.343-3.023-1.028c0-0.158,0.032-0.28,0.097-0.365s0.223-0.215,0.475-0.391
		c0.223-0.158,0.376-0.584,0.462-1.279c0.084-0.694,0.127-1.844,0.127-3.45c0-1.26-0.035-2.133-0.105-2.619
		c-0.023-0.182-0.066-0.315-0.127-0.4c-0.063-0.085-0.178-0.171-0.348-0.259c-0.363-0.188-0.545-0.404-0.545-0.65
		c0-0.293,0.138-0.53,0.413-0.712s0.803-0.378,1.582-0.589c1.055-0.293,1.896-0.439,2.522-0.439
		C178.476,8.267,178.64,8.414,178.628,8.707z"/>
	<path fill="#F9FAFD" d="M189.474,11.519c0.293,0,0.771,0.064,1.433,0.193c0.135,0.023,0.246,0.035,0.334,0.035
		c0.1,0,0.293-0.053,0.58-0.158c0.135-0.053,0.249-0.079,0.343-0.079c0.27,0,0.542,0.173,0.817,0.519
		c0.223,0.275,0.404,0.577,0.545,0.905s0.211,0.612,0.211,0.853c0,0.234-0.082,0.429-0.246,0.584s-0.369,0.233-0.615,0.233
		c-0.205,0-0.388-0.05-0.55-0.149c-0.16-0.1-0.42-0.319-0.777-0.659c-0.375-0.363-0.686-0.545-0.932-0.545
		c-0.164,0-0.307,0.06-0.426,0.18c-0.121,0.12-0.181,0.262-0.181,0.426c0,0.287,0.275,0.557,0.826,0.809
		c0.99,0.445,1.749,0.932,2.276,1.459c0.445,0.445,0.668,0.99,0.668,1.635c0,0.814-0.357,1.494-1.072,2.039
		c-0.615,0.475-1.368,0.712-2.259,0.712c-0.229,0-0.645-0.038-1.248-0.114c-0.568-0.064-0.888-0.097-0.958-0.097
		c-0.076,0-0.164,0.009-0.264,0.026c-0.17,0.023-0.293,0.035-0.369,0.035c-0.275,0-0.492-0.07-0.65-0.211
		c-0.24-0.217-0.463-0.558-0.668-1.024s-0.308-0.866-0.308-1.2c0-0.539,0.211-0.809,0.633-0.809c0.164,0,0.315,0.054,0.452,0.163
		c0.139,0.108,0.427,0.397,0.866,0.866c0.24,0.258,0.439,0.435,0.598,0.532s0.328,0.145,0.51,0.145c0.193,0,0.349-0.051,0.466-0.154
		s0.176-0.239,0.176-0.409c0-0.264-0.226-0.504-0.677-0.721c-0.943-0.463-1.624-0.94-2.044-1.433
		c-0.418-0.492-0.628-1.061-0.628-1.705c0-0.697,0.214-1.298,0.642-1.802C187.587,11.879,188.419,11.519,189.474,11.519z"/>
</g>
<g>
	<g>
		<path fill="#F9FAFD" d="M40.301,26.743c0.58,0,1.09,0.145,1.533,0.435c0.42,0.277,0.63,0.62,0.63,1.03
			c0,0.283-0.098,0.513-0.293,0.688c-0.182,0.166-0.402,0.249-0.659,0.249c-0.27,0-0.474-0.098-0.61-0.293
			c-0.042-0.062-0.104-0.22-0.186-0.474c-0.088-0.273-0.255-0.41-0.503-0.41c-0.179,0-0.33,0.078-0.452,0.234
			s-0.183,0.348-0.183,0.576c0,0.391,0.14,0.737,0.42,1.04c0.228,0.244,0.514,0.366,0.859,0.366c0.163,0,0.299-0.014,0.41-0.042
			s0.255-0.084,0.435-0.168c0.045-0.023,0.096-0.034,0.151-0.034c0.111,0,0.208,0.052,0.293,0.156s0.127,0.226,0.127,0.366
			c0,0.146-0.06,0.3-0.181,0.461s-0.278,0.302-0.474,0.422c-0.423,0.26-0.923,0.391-1.499,0.391c-0.67,0-1.242-0.195-1.714-0.586
			c-0.605-0.495-0.908-1.125-0.908-1.89c0-0.736,0.282-1.344,0.845-1.826C38.88,26.974,39.533,26.743,40.301,26.743z"/>
		<path fill="#F9FAFD" d="M45.804,26.738c0.596,0,1.118,0.155,1.567,0.464c0.322,0.221,0.581,0.509,0.776,0.864
			c0.202,0.371,0.303,0.758,0.303,1.162c0,0.707-0.324,1.307-0.972,1.802c-0.619,0.472-1.327,0.708-2.124,0.708
			c-0.778,0-1.408-0.221-1.89-0.664c-0.469-0.43-0.703-0.99-0.703-1.68c0-0.768,0.287-1.396,0.859-1.885
			C44.221,26.995,44.948,26.738,45.804,26.738z M45.414,27.866c-0.143,0-0.258,0.053-0.344,0.159s-0.129,0.247-0.129,0.422
			c0,0.195,0.037,0.461,0.11,0.798s0.16,0.636,0.261,0.896c0.101,0.267,0.265,0.4,0.493,0.4c0.29,0,0.435-0.184,0.435-0.552
			c0-0.273-0.037-0.584-0.11-0.933s-0.162-0.631-0.266-0.85C45.755,27.986,45.605,27.872,45.414,27.866z"/>
		<path fill="#F9FAFD" d="M51.17,26.777c0.186,0,0.278,0.132,0.278,0.396c0,0.003,0,0.031,0,0.083
			c-0.003,0.052-0.005,0.094-0.005,0.127c0,0.176,0.052,0.264,0.156,0.264c0.055,0,0.142-0.07,0.259-0.21
			c0.176-0.202,0.397-0.362,0.664-0.481s0.541-0.178,0.82-0.178c0.543,0,0.921,0.199,1.133,0.596c0.082,0.146,0.148,0.22,0.2,0.22
			c0.036,0,0.121-0.065,0.254-0.195c0.423-0.414,0.903-0.62,1.44-0.62c0.42,0,0.763,0.116,1.03,0.347
			c0.28,0.241,0.42,0.602,0.42,1.084c0,0.104-0.003,0.28-0.01,0.527c-0.006,0.084-0.01,0.34-0.01,0.767
			c0,0.273-0.001,0.465-0.005,0.576c-0.003,0.068-0.005,0.117-0.005,0.146c0,0.208,0.065,0.391,0.195,0.547
			c0.078,0.094,0.126,0.157,0.144,0.188s0.027,0.072,0.027,0.125c0,0.417-0.49,0.625-1.47,0.625c-0.433,0-0.782-0.052-1.047-0.156
			s-0.398-0.241-0.398-0.41c0-0.065,0.009-0.115,0.027-0.149s0.081-0.125,0.188-0.271c0.101-0.133,0.151-0.578,0.151-1.333
			c0-0.439-0.031-0.746-0.093-0.918c-0.072-0.205-0.215-0.308-0.43-0.308c-0.107,0-0.203,0.033-0.286,0.1s-0.138,0.15-0.164,0.251
			c-0.029,0.117-0.045,0.43-0.049,0.938c0.01,0.547,0.027,0.879,0.051,0.996s0.106,0.28,0.247,0.488
			c0.033,0.049,0.049,0.111,0.049,0.186c0,0.387-0.506,0.581-1.519,0.581c-0.609,0-1.019-0.045-1.23-0.137
			c-0.169-0.072-0.254-0.199-0.254-0.381c0-0.082,0.011-0.138,0.032-0.171s0.094-0.107,0.217-0.225
			c0.072-0.068,0.118-0.133,0.139-0.193s0.037-0.17,0.046-0.33c0.023-0.358,0.034-0.719,0.034-1.084
			c0-0.638-0.163-0.957-0.488-0.957c-0.244,0-0.389,0.137-0.435,0.41c-0.039,0.257-0.059,0.625-0.059,1.104
			c0,0.358,0.007,0.592,0.022,0.703s0.055,0.226,0.12,0.347c0.078,0.14,0.117,0.254,0.117,0.342c0,0.211-0.148,0.358-0.444,0.439
			c-0.322,0.088-0.677,0.132-1.064,0.132c-0.501,0-0.869-0.04-1.104-0.12s-0.352-0.206-0.352-0.378c0-0.065,0.016-0.121,0.046-0.166
			s0.102-0.117,0.212-0.215c0.146-0.133,0.231-0.317,0.254-0.552c0.036-0.404,0.054-0.822,0.054-1.255
			c0-0.309-0.016-0.525-0.046-0.647s-0.097-0.221-0.198-0.295c-0.098-0.075-0.16-0.132-0.188-0.171s-0.042-0.093-0.042-0.161
			c0-0.218,0.171-0.391,0.513-0.518C50.144,26.93,50.76,26.78,51.17,26.777z"/>
		<path fill="#F9FAFD" d="M60.814,26.777c0.186,0,0.278,0.132,0.278,0.396c0,0.003,0,0.031,0,0.083
			c-0.003,0.052-0.005,0.094-0.005,0.127c0,0.176,0.052,0.264,0.156,0.264c0.055,0,0.142-0.07,0.259-0.21
			c0.176-0.202,0.397-0.362,0.664-0.481s0.541-0.178,0.82-0.178c0.543,0,0.921,0.199,1.133,0.596c0.082,0.146,0.148,0.22,0.2,0.22
			c0.036,0,0.121-0.065,0.254-0.195c0.423-0.414,0.903-0.62,1.44-0.62c0.42,0,0.763,0.116,1.03,0.347
			c0.28,0.241,0.42,0.602,0.42,1.084c0,0.104-0.003,0.28-0.01,0.527c-0.006,0.084-0.01,0.34-0.01,0.767
			c0,0.273-0.001,0.465-0.005,0.576c-0.003,0.068-0.005,0.117-0.005,0.146c0,0.208,0.065,0.391,0.195,0.547
			c0.078,0.094,0.126,0.157,0.144,0.188s0.027,0.072,0.027,0.125c0,0.417-0.49,0.625-1.47,0.625c-0.433,0-0.782-0.052-1.047-0.156
			s-0.398-0.241-0.398-0.41c0-0.065,0.009-0.115,0.027-0.149s0.081-0.125,0.188-0.271c0.101-0.133,0.151-0.578,0.151-1.333
			c0-0.439-0.031-0.746-0.093-0.918c-0.072-0.205-0.215-0.308-0.43-0.308c-0.107,0-0.203,0.033-0.286,0.1s-0.138,0.15-0.164,0.251
			c-0.029,0.117-0.045,0.43-0.049,0.938c0.01,0.547,0.027,0.879,0.051,0.996s0.106,0.28,0.247,0.488
			c0.033,0.049,0.049,0.111,0.049,0.186c0,0.387-0.506,0.581-1.519,0.581c-0.609,0-1.019-0.045-1.23-0.137
			c-0.169-0.072-0.254-0.199-0.254-0.381c0-0.082,0.011-0.138,0.032-0.171s0.094-0.107,0.217-0.225
			c0.072-0.068,0.118-0.133,0.139-0.193s0.037-0.17,0.046-0.33c0.023-0.358,0.034-0.719,0.034-1.084
			c0-0.638-0.163-0.957-0.488-0.957c-0.244,0-0.389,0.137-0.435,0.41c-0.039,0.257-0.059,0.625-0.059,1.104
			c0,0.358,0.007,0.592,0.022,0.703s0.055,0.226,0.12,0.347c0.078,0.14,0.117,0.254,0.117,0.342c0,0.211-0.148,0.358-0.444,0.439
			c-0.322,0.088-0.677,0.132-1.064,0.132c-0.501,0-0.869-0.04-1.104-0.12s-0.352-0.206-0.352-0.378c0-0.065,0.016-0.121,0.046-0.166
			s0.102-0.117,0.212-0.215c0.146-0.133,0.231-0.317,0.254-0.552c0.036-0.404,0.054-0.822,0.054-1.255
			c0-0.309-0.016-0.525-0.046-0.647s-0.097-0.221-0.198-0.295c-0.098-0.075-0.16-0.132-0.188-0.171s-0.042-0.093-0.042-0.161
			c0-0.218,0.171-0.391,0.513-0.518C59.787,26.93,60.404,26.78,60.814,26.777z"/>
		<path fill="#F9FAFD" d="M70.804,27.08v2.837c0,0.225,0.021,0.389,0.061,0.493s0.123,0.2,0.247,0.288
			c0.101,0.072,0.168,0.133,0.203,0.183s0.051,0.115,0.051,0.193c0,0.42-0.532,0.63-1.597,0.63c-0.573,0-1.027-0.045-1.362-0.137
			c-0.114-0.033-0.206-0.089-0.276-0.171s-0.105-0.174-0.105-0.278c0-0.088,0.018-0.156,0.054-0.205s0.127-0.127,0.273-0.234
			c0.101-0.075,0.172-0.197,0.215-0.366s0.063-0.421,0.063-0.757c0-0.107-0.007-0.309-0.022-0.603s-0.025-0.466-0.032-0.515
			c-0.02-0.133-0.111-0.236-0.273-0.308c-0.202-0.088-0.303-0.218-0.303-0.391c0-0.205,0.132-0.358,0.396-0.459
			c0.365-0.14,0.755-0.259,1.172-0.356s0.739-0.146,0.967-0.146C70.715,26.777,70.804,26.878,70.804,27.08z M69.837,24.941
			c0.283,0,0.508,0.053,0.674,0.159s0.249,0.248,0.249,0.427c0,0.25-0.125,0.449-0.376,0.596c-0.397,0.231-0.877,0.347-1.44,0.347
			c-0.238,0-0.426-0.045-0.566-0.137c-0.189-0.117-0.283-0.28-0.283-0.488c0-0.28,0.2-0.5,0.601-0.659
			C69.102,25.022,69.482,24.941,69.837,24.941z"/>
		<path fill="#F9FAFD" d="M74.554,28.022v1.65c0,0.195,0.048,0.355,0.144,0.479s0.219,0.186,0.369,0.186
			c0.127,0,0.294-0.059,0.503-0.176c0.049-0.029,0.098-0.044,0.146-0.044c0.078,0,0.15,0.047,0.215,0.142s0.098,0.197,0.098,0.308
			c0,0.202-0.111,0.396-0.332,0.581c-0.462,0.394-1.022,0.591-1.68,0.591c-0.521,0-0.939-0.147-1.255-0.442
			s-0.474-0.683-0.474-1.165v-2.256c0-0.075-0.009-0.121-0.027-0.139s-0.064-0.027-0.139-0.027H71.62
			c-0.094,0-0.155-0.016-0.181-0.046S71.4,27.56,71.4,27.446v-0.215c0.003-0.098,0.041-0.169,0.112-0.215l2.236-1.406
			c0.055-0.029,0.124-0.044,0.205-0.044h0.396c0.082,0,0.136,0.019,0.164,0.056s0.042,0.111,0.042,0.222v0.659
			c0,0.098,0.016,0.161,0.046,0.19s0.097,0.044,0.198,0.044h0.903c0.121,0,0.199,0.022,0.234,0.066s0.054,0.138,0.054,0.281v0.288
			c0,0.156-0.023,0.265-0.068,0.325s-0.128,0.09-0.249,0.09h-0.884c-0.091,0-0.153,0.016-0.186,0.049S74.554,27.931,74.554,28.022z"
			/>
		<path fill="#F9FAFD" d="M79.183,28.022v1.65c0,0.195,0.048,0.355,0.144,0.479s0.219,0.186,0.369,0.186
			c0.127,0,0.294-0.059,0.503-0.176c0.049-0.029,0.098-0.044,0.146-0.044c0.078,0,0.15,0.047,0.215,0.142s0.098,0.197,0.098,0.308
			c0,0.202-0.111,0.396-0.332,0.581c-0.462,0.394-1.022,0.591-1.68,0.591c-0.521,0-0.939-0.147-1.255-0.442
			s-0.474-0.683-0.474-1.165v-2.256c0-0.075-0.009-0.121-0.027-0.139s-0.064-0.027-0.139-0.027h-0.503
			c-0.094,0-0.155-0.016-0.181-0.046s-0.039-0.104-0.039-0.217v-0.215c0.003-0.098,0.041-0.169,0.112-0.215l2.236-1.406
			c0.055-0.029,0.124-0.044,0.205-0.044h0.396c0.082,0,0.136,0.019,0.164,0.056s0.042,0.111,0.042,0.222v0.659
			c0,0.098,0.016,0.161,0.046,0.19s0.097,0.044,0.198,0.044h0.903c0.121,0,0.199,0.022,0.234,0.066s0.054,0.138,0.054,0.281v0.288
			c0,0.156-0.023,0.265-0.068,0.325s-0.128,0.09-0.249,0.09h-0.884c-0.091,0-0.153,0.016-0.186,0.049S79.183,27.931,79.183,28.022z"
			/>
		<path fill="#F9FAFD" d="M83.28,26.777c0.186,0,0.278,0.132,0.278,0.396c0,0.003,0,0.031,0,0.083
			c-0.003,0.052-0.005,0.094-0.005,0.127c0,0.176,0.052,0.264,0.156,0.264c0.055,0,0.142-0.07,0.259-0.21
			c0.176-0.202,0.397-0.362,0.664-0.481s0.541-0.178,0.82-0.178c0.543,0,0.921,0.199,1.133,0.596c0.082,0.146,0.148,0.22,0.2,0.22
			c0.036,0,0.121-0.065,0.254-0.195c0.423-0.414,0.903-0.62,1.44-0.62c0.42,0,0.763,0.116,1.03,0.347
			c0.28,0.241,0.42,0.602,0.42,1.084c0,0.104-0.003,0.28-0.01,0.527c-0.006,0.084-0.01,0.34-0.01,0.767
			c0,0.273-0.001,0.465-0.005,0.576c-0.003,0.068-0.005,0.117-0.005,0.146c0,0.208,0.065,0.391,0.195,0.547
			c0.078,0.094,0.126,0.157,0.144,0.188s0.027,0.072,0.027,0.125c0,0.417-0.49,0.625-1.47,0.625c-0.433,0-0.782-0.052-1.047-0.156
			s-0.398-0.241-0.398-0.41c0-0.065,0.009-0.115,0.027-0.149s0.081-0.125,0.188-0.271c0.101-0.133,0.151-0.578,0.151-1.333
			c0-0.439-0.031-0.746-0.093-0.918c-0.072-0.205-0.215-0.308-0.43-0.308c-0.107,0-0.203,0.033-0.286,0.1s-0.138,0.15-0.164,0.251
			c-0.029,0.117-0.045,0.43-0.049,0.938c0.01,0.547,0.027,0.879,0.051,0.996s0.106,0.28,0.247,0.488
			c0.033,0.049,0.049,0.111,0.049,0.186c0,0.387-0.506,0.581-1.519,0.581c-0.609,0-1.019-0.045-1.23-0.137
			c-0.169-0.072-0.254-0.199-0.254-0.381c0-0.082,0.011-0.138,0.032-0.171s0.094-0.107,0.217-0.225
			c0.072-0.068,0.118-0.133,0.139-0.193s0.037-0.17,0.046-0.33c0.023-0.358,0.034-0.719,0.034-1.084
			c0-0.638-0.163-0.957-0.488-0.957c-0.244,0-0.389,0.137-0.435,0.41c-0.039,0.257-0.059,0.625-0.059,1.104
			c0,0.358,0.007,0.592,0.022,0.703s0.055,0.226,0.12,0.347c0.078,0.14,0.117,0.254,0.117,0.342c0,0.211-0.148,0.358-0.444,0.439
			c-0.322,0.088-0.677,0.132-1.064,0.132c-0.501,0-0.869-0.04-1.104-0.12s-0.352-0.206-0.352-0.378c0-0.065,0.016-0.121,0.046-0.166
			s0.102-0.117,0.212-0.215c0.146-0.133,0.231-0.317,0.254-0.552c0.036-0.404,0.054-0.822,0.054-1.255
			c0-0.309-0.016-0.525-0.046-0.647s-0.097-0.221-0.198-0.295c-0.098-0.075-0.16-0.132-0.188-0.171s-0.042-0.093-0.042-0.161
			c0-0.218,0.171-0.391,0.513-0.518C82.253,26.93,82.87,26.78,83.28,26.777z"/>
		<path fill="#F9FAFD" d="M95.067,29.418h-2.295c-0.101,0-0.151,0.044-0.151,0.132c0,0.211,0.115,0.411,0.344,0.598
			s0.476,0.281,0.74,0.281c0.156,0,0.33-0.03,0.52-0.09s0.348-0.134,0.471-0.222C94.807,30.039,94.895,30,94.959,30
			c0.084,0,0.167,0.052,0.249,0.156s0.122,0.211,0.122,0.322c0,0.234-0.146,0.46-0.439,0.679c-0.518,0.387-1.115,0.581-1.792,0.581
			c-0.684,0-1.256-0.199-1.719-0.596c-0.225-0.195-0.41-0.431-0.557-0.708c-0.192-0.368-0.288-0.755-0.288-1.162
			c0-0.547,0.166-1.039,0.498-1.475c0.287-0.377,0.651-0.659,1.094-0.845c0.332-0.14,0.692-0.21,1.079-0.21
			c0.619,0,1.144,0.176,1.577,0.527c0.218,0.176,0.394,0.384,0.527,0.625c0.153,0.273,0.229,0.541,0.229,0.801
			c0,0.211-0.044,0.385-0.132,0.52S95.207,29.418,95.067,29.418z M92.899,28.505h0.493c0.208,0,0.313-0.096,0.313-0.288
			c0-0.176-0.05-0.319-0.151-0.43s-0.233-0.166-0.396-0.166c-0.182,0-0.326,0.072-0.43,0.215c-0.098,0.133-0.146,0.269-0.146,0.405
			c0,0.098,0.023,0.166,0.071,0.205S92.782,28.505,92.899,28.505z"/>
		<path fill="#F9FAFD" d="M101.781,28.544l0.068,1.719c0.006,0.13,0.027,0.226,0.061,0.288s0.134,0.181,0.3,0.356
			c0.049,0.052,0.073,0.125,0.073,0.22c0,0.215-0.128,0.365-0.386,0.449s-0.716,0.127-1.377,0.127c-0.449,0-0.767-0.039-0.952-0.117
			c-0.192-0.082-0.288-0.213-0.288-0.396c0-0.065,0.01-0.113,0.029-0.144s0.084-0.106,0.195-0.227
			c0.13-0.137,0.195-0.592,0.195-1.367c0-0.449-0.052-0.781-0.156-0.996c-0.084-0.172-0.241-0.259-0.469-0.259
			c-0.218,0-0.368,0.07-0.449,0.21s-0.122,0.394-0.122,0.762v0.967c0,0.192,0.012,0.324,0.037,0.396s0.105,0.21,0.242,0.415
			c0.036,0.059,0.054,0.125,0.054,0.2c0,0.192-0.133,0.333-0.4,0.425s-0.684,0.137-1.25,0.137c-0.905,0-1.357-0.187-1.357-0.562
			c0-0.078,0.014-0.138,0.042-0.178s0.094-0.099,0.198-0.173c0.084-0.062,0.138-0.133,0.161-0.212s0.044-0.276,0.063-0.588
			c0.023-0.371,0.034-0.76,0.034-1.167c0-0.225-0.017-0.372-0.051-0.442s-0.133-0.155-0.295-0.256
			c-0.14-0.088-0.21-0.195-0.21-0.322c0-0.13,0.057-0.237,0.171-0.32s0.348-0.188,0.703-0.315c0.313-0.111,0.614-0.204,0.903-0.281
			s0.488-0.115,0.596-0.115c0.098,0,0.18,0.036,0.247,0.107s0.1,0.156,0.1,0.254c0,0.01-0.001,0.05-0.005,0.122
			c-0.003,0.026-0.005,0.049-0.005,0.068c0,0.156,0.065,0.234,0.195,0.234c0.078,0,0.161-0.062,0.249-0.186
			c0.28-0.404,0.687-0.605,1.221-0.605c0.41,0,0.762,0.107,1.055,0.322c0.205,0.153,0.348,0.333,0.43,0.54
			S101.761,28.144,101.781,28.544z"/>
		<path fill="#F9FAFD" d="M105.467,28.022v1.65c0,0.195,0.048,0.355,0.144,0.479s0.219,0.186,0.369,0.186
			c0.127,0,0.294-0.059,0.503-0.176c0.049-0.029,0.098-0.044,0.146-0.044c0.078,0,0.15,0.047,0.215,0.142s0.098,0.197,0.098,0.308
			c0,0.202-0.111,0.396-0.332,0.581c-0.462,0.394-1.022,0.591-1.68,0.591c-0.521,0-0.939-0.147-1.255-0.442
			s-0.474-0.683-0.474-1.165v-2.256c0-0.075-0.009-0.121-0.027-0.139s-0.064-0.027-0.139-0.027h-0.503
			c-0.094,0-0.155-0.016-0.181-0.046s-0.039-0.104-0.039-0.217v-0.215c0.003-0.098,0.041-0.169,0.112-0.215l2.236-1.406
			c0.055-0.029,0.124-0.044,0.205-0.044h0.396c0.082,0,0.136,0.019,0.164,0.056s0.042,0.111,0.042,0.222v0.659
			c0,0.098,0.016,0.161,0.046,0.19s0.097,0.044,0.198,0.044h0.903c0.121,0,0.199,0.022,0.234,0.066s0.054,0.138,0.054,0.281v0.288
			c0,0.156-0.023,0.265-0.068,0.325s-0.128,0.09-0.249,0.09h-0.884c-0.091,0-0.153,0.016-0.186,0.049S105.467,27.931,105.467,28.022
			z"/>
		<path fill="#F9FAFD" d="M112.596,28.022v1.65c0,0.195,0.048,0.355,0.144,0.479s0.219,0.186,0.369,0.186
			c0.127,0,0.294-0.059,0.503-0.176c0.049-0.029,0.098-0.044,0.146-0.044c0.078,0,0.15,0.047,0.215,0.142s0.098,0.197,0.098,0.308
			c0,0.202-0.111,0.396-0.332,0.581c-0.462,0.394-1.022,0.591-1.68,0.591c-0.521,0-0.939-0.147-1.255-0.442
			s-0.474-0.683-0.474-1.165v-2.256c0-0.075-0.009-0.121-0.027-0.139s-0.064-0.027-0.139-0.027h-0.503
			c-0.094,0-0.155-0.016-0.181-0.046s-0.039-0.104-0.039-0.217v-0.215c0.003-0.098,0.041-0.169,0.112-0.215l2.236-1.406
			c0.055-0.029,0.124-0.044,0.205-0.044h0.396c0.082,0,0.136,0.019,0.164,0.056s0.042,0.111,0.042,0.222v0.659
			c0,0.098,0.016,0.161,0.046,0.19s0.097,0.044,0.198,0.044h0.903c0.121,0,0.199,0.022,0.234,0.066s0.054,0.138,0.054,0.281v0.288
			c0,0.156-0.023,0.265-0.068,0.325s-0.128,0.09-0.249,0.09h-0.884c-0.091,0-0.153,0.016-0.186,0.049S112.596,27.931,112.596,28.022
			z"/>
		<path fill="#F9FAFD" d="M117.293,26.738c0.596,0,1.118,0.155,1.567,0.464c0.322,0.221,0.581,0.509,0.776,0.864
			c0.202,0.371,0.303,0.758,0.303,1.162c0,0.707-0.324,1.307-0.972,1.802c-0.619,0.472-1.327,0.708-2.124,0.708
			c-0.778,0-1.408-0.221-1.89-0.664c-0.469-0.43-0.703-0.99-0.703-1.68c0-0.768,0.287-1.396,0.859-1.885
			C115.71,26.995,116.438,26.738,117.293,26.738z M116.903,27.866c-0.143,0-0.258,0.053-0.344,0.159s-0.129,0.247-0.129,0.422
			c0,0.195,0.037,0.461,0.11,0.798s0.16,0.636,0.261,0.896c0.101,0.267,0.265,0.4,0.493,0.4c0.29,0,0.435-0.184,0.435-0.552
			c0-0.273-0.037-0.584-0.11-0.933s-0.162-0.631-0.266-0.85C117.245,27.986,117.095,27.872,116.903,27.866z"/>
		<path fill="#F9FAFD" d="M125.746,30.761l-0.503-0.806c-0.117-0.182-0.193-0.292-0.227-0.327s-0.079-0.054-0.134-0.054
			c-0.117,0-0.238,0.107-0.361,0.322l-0.815,1.406c-0.156,0.27-0.332,0.405-0.527,0.405c-0.121,0-0.231-0.042-0.332-0.125
			s-0.21-0.224-0.327-0.422l-1.465-2.437c-0.244-0.394-0.435-0.651-0.571-0.771c-0.065-0.052-0.184-0.103-0.356-0.151
			c-0.072-0.023-0.131-0.067-0.178-0.134s-0.071-0.141-0.071-0.222c0-0.25,0.194-0.426,0.581-0.527
			c0.391-0.098,0.817-0.146,1.279-0.146c1.039,0,1.558,0.194,1.558,0.581c0,0.072-0.05,0.181-0.151,0.327
			c-0.02,0.029-0.029,0.06-0.029,0.093c0,0.072,0.077,0.249,0.229,0.532c0.169,0.322,0.316,0.483,0.439,0.483
			c0.072,0,0.163-0.082,0.273-0.244s0.166-0.294,0.166-0.396s-0.024-0.182-0.073-0.242s-0.165-0.155-0.347-0.286
			c-0.111-0.078-0.166-0.171-0.166-0.278c0-0.254,0.26-0.42,0.781-0.498c0.316-0.049,0.687-0.073,1.113-0.073
			c0.492,0,0.846,0.042,1.064,0.125s0.327,0.217,0.327,0.403c0,0.075-0.013,0.135-0.039,0.181s-0.096,0.127-0.21,0.244
			c-0.036,0.039-0.054,0.089-0.054,0.151c0,0.088,0.075,0.273,0.225,0.557c0.13,0.248,0.249,0.371,0.356,0.371
			c0.117,0,0.265-0.158,0.445-0.474c0.13-0.238,0.195-0.396,0.195-0.474c0-0.062-0.053-0.158-0.156-0.288
			c-0.075-0.091-0.113-0.19-0.113-0.298c0-0.169,0.077-0.287,0.23-0.352c0.215-0.094,0.527-0.142,0.938-0.142
			c0.276,0,0.521,0.021,0.736,0.063c0.124,0.026,0.225,0.079,0.303,0.159s0.117,0.172,0.117,0.276s-0.045,0.192-0.137,0.264
			c-0.016,0.016-0.13,0.062-0.342,0.137c-0.12,0.045-0.219,0.111-0.297,0.195s-0.173,0.236-0.283,0.454l-1.221,2.363
			c-0.358,0.69-0.674,1.035-0.948,1.035c-0.117,0-0.247-0.074-0.388-0.222S125.96,31.106,125.746,30.761z"/>
		<path fill="#F9FAFD" d="M132.62,26.738c0.566,0,1.047,0.143,1.441,0.43c0.208,0.153,0.354,0.328,0.437,0.525
			s0.124,0.468,0.124,0.813l-0.01,0.728c0,0.504,0.036,0.832,0.107,0.981c0.036,0.072,0.07,0.117,0.104,0.137
			c0.032,0.02,0.101,0.038,0.205,0.054c0.104,0.016,0.156,0.084,0.156,0.205c0,0.156-0.063,0.319-0.188,0.488
			s-0.287,0.311-0.485,0.425c-0.244,0.143-0.5,0.215-0.768,0.215c-0.342,0-0.611-0.117-0.811-0.352
			c-0.068-0.084-0.131-0.127-0.189-0.127c-0.065,0-0.152,0.041-0.26,0.122c-0.325,0.238-0.694,0.356-1.107,0.356
			c-0.427,0-0.771-0.091-1.035-0.273c-0.173-0.121-0.31-0.277-0.41-0.471c-0.102-0.194-0.152-0.396-0.152-0.608
			c0-0.338,0.137-0.638,0.41-0.898c0.427-0.41,1.064-0.617,1.914-0.62c0.189,0,0.309-0.019,0.357-0.056s0.072-0.125,0.072-0.261
			c0-0.345-0.035-0.595-0.107-0.75c-0.071-0.155-0.188-0.232-0.352-0.232c-0.098,0-0.184,0.029-0.261,0.088
			s-0.172,0.166-0.286,0.322c-0.289,0.414-0.592,0.62-0.908,0.62c-0.159,0-0.289-0.047-0.391-0.142
			c-0.101-0.094-0.15-0.218-0.15-0.371c0-0.156,0.063-0.313,0.188-0.469s0.295-0.293,0.51-0.41
			C131.364,26.894,131.979,26.738,132.62,26.738z M132.294,29.565c-0.144,0-0.268,0.059-0.374,0.176s-0.159,0.257-0.159,0.42
			c0,0.156,0.038,0.282,0.113,0.378c0.074,0.096,0.174,0.144,0.297,0.144c0.261,0,0.391-0.22,0.391-0.659
			c0-0.179-0.018-0.299-0.056-0.361S132.397,29.568,132.294,29.565z"/>
		<path fill="#F9FAFD" d="M137.782,26.772c0.172,0,0.277,0.024,0.314,0.073s0.07,0.205,0.1,0.469
			c0.017,0.143,0.067,0.215,0.152,0.215c0.064,0,0.127-0.047,0.186-0.142c0.26-0.407,0.6-0.61,1.02-0.61
			c0.297,0,0.539,0.096,0.729,0.288c0.091,0.094,0.166,0.216,0.225,0.364s0.088,0.291,0.088,0.427c0,0.153-0.036,0.31-0.107,0.471
			c-0.072,0.161-0.165,0.294-0.279,0.398c-0.208,0.199-0.463,0.298-0.766,0.298c-0.166,0-0.306-0.029-0.418-0.088
			s-0.26-0.177-0.441-0.356c-0.068-0.068-0.133-0.103-0.191-0.103c-0.091,0-0.15,0.051-0.178,0.154s-0.041,0.318-0.041,0.647
			c0,0.492,0.018,0.827,0.053,1.006c0.023,0.098,0.055,0.165,0.096,0.203s0.128,0.076,0.262,0.115
			c0.293,0.088,0.439,0.241,0.439,0.459c0,0.133-0.048,0.25-0.143,0.349c-0.094,0.099-0.219,0.165-0.375,0.198
			c-0.313,0.065-0.771,0.098-1.377,0.098c-0.576,0-1.015-0.05-1.314-0.151c-0.267-0.091-0.4-0.249-0.4-0.474
			c0-0.169,0.098-0.321,0.293-0.454c0.095-0.062,0.16-0.118,0.195-0.168c0.036-0.05,0.061-0.12,0.074-0.208
			c0.052-0.296,0.078-0.845,0.078-1.646c0-0.146-0.017-0.251-0.049-0.315c-0.033-0.063-0.098-0.115-0.195-0.154
			c-0.231-0.091-0.348-0.223-0.348-0.396c0-0.156,0.08-0.291,0.24-0.403c0.159-0.112,0.426-0.224,0.801-0.334
			C137.004,26.852,137.431,26.775,137.782,26.772z"/>
		<path fill="#F9FAFD" d="M146.458,25.332v4.458c0,0.254,0.012,0.417,0.032,0.488s0.081,0.142,0.179,0.21
			c0.117,0.082,0.195,0.153,0.236,0.215s0.061,0.137,0.061,0.225c0,0.26-0.262,0.459-0.785,0.596
			c-0.473,0.121-0.944,0.181-1.416,0.181c-0.104,0-0.172-0.016-0.203-0.046s-0.051-0.105-0.061-0.222
			c-0.017-0.166-0.075-0.249-0.176-0.249c-0.056,0-0.143,0.049-0.26,0.146c-0.332,0.27-0.701,0.405-1.107,0.405
			c-0.505,0-0.959-0.187-1.363-0.562c-0.237-0.225-0.43-0.483-0.576-0.776c-0.195-0.381-0.293-0.767-0.293-1.157
			c0-0.459,0.127-0.902,0.381-1.328c0.234-0.394,0.554-0.697,0.957-0.908c0.339-0.176,0.673-0.264,1.002-0.264
			c0.377,0,0.716,0.084,1.016,0.254c0.049,0.026,0.088,0.039,0.117,0.039c0.104,0,0.156-0.14,0.156-0.42
			c0-0.121-0.029-0.212-0.086-0.276s-0.158-0.118-0.305-0.164c-0.205-0.065-0.309-0.179-0.309-0.342
			c0-0.238,0.236-0.423,0.709-0.557c0.833-0.231,1.391-0.347,1.674-0.347C146.318,24.931,146.458,25.064,146.458,25.332z
			 M143.808,27.788c-0.212,0-0.38,0.112-0.504,0.337c-0.166,0.299-0.248,0.693-0.248,1.182c0,0.443,0.079,0.776,0.238,1.001
			c0.114,0.163,0.27,0.244,0.465,0.244c0.211,0,0.365-0.123,0.461-0.369s0.145-0.642,0.145-1.189c0-0.501-0.058-0.835-0.172-1.001
			C144.104,27.862,143.977,27.794,143.808,27.788z"/>
		<path fill="#F9FAFD" d="M149.208,26.743c0.162,0,0.428,0.036,0.795,0.107c0.075,0.013,0.137,0.02,0.186,0.02
			c0.056,0,0.163-0.029,0.322-0.088c0.075-0.029,0.139-0.044,0.191-0.044c0.149,0,0.301,0.096,0.453,0.288
			c0.124,0.153,0.225,0.321,0.303,0.503s0.117,0.34,0.117,0.474c0,0.13-0.045,0.238-0.137,0.325
			c-0.091,0.086-0.205,0.129-0.342,0.129c-0.113,0-0.215-0.028-0.305-0.083s-0.233-0.177-0.432-0.366
			c-0.209-0.202-0.381-0.303-0.518-0.303c-0.092,0-0.17,0.033-0.237,0.1s-0.101,0.146-0.101,0.237c0,0.16,0.153,0.309,0.459,0.449
			c0.551,0.248,0.973,0.518,1.266,0.811c0.247,0.248,0.371,0.55,0.371,0.908c0,0.453-0.199,0.83-0.596,1.133
			c-0.342,0.264-0.761,0.396-1.256,0.396c-0.127,0-0.357-0.021-0.693-0.063c-0.315-0.036-0.492-0.054-0.531-0.054
			c-0.043,0-0.092,0.005-0.146,0.015c-0.095,0.013-0.163,0.02-0.205,0.02c-0.153,0-0.273-0.039-0.361-0.117
			c-0.134-0.121-0.258-0.31-0.371-0.569c-0.114-0.259-0.172-0.481-0.172-0.667c0-0.299,0.117-0.449,0.352-0.449
			c0.092,0,0.176,0.03,0.252,0.09s0.236,0.221,0.48,0.481c0.134,0.143,0.244,0.242,0.332,0.295s0.183,0.081,0.283,0.081
			c0.107,0,0.194-0.028,0.26-0.085c0.064-0.057,0.098-0.133,0.098-0.227c0-0.146-0.126-0.28-0.377-0.4
			c-0.523-0.257-0.902-0.522-1.135-0.796s-0.35-0.589-0.35-0.947c0-0.387,0.119-0.721,0.357-1.001
			C148.159,26.943,148.622,26.743,149.208,26.743z"/>
		<path fill="#F9FAFD" d="M157.356,26.743c0.215,0,0.389,0.01,0.521,0.029s0.39,0.075,0.774,0.166
			c0.104,0.023,0.205,0.034,0.303,0.034c0.117,0,0.289-0.041,0.518-0.122c0.198-0.072,0.361-0.107,0.488-0.107
			c0.286,0,0.43,0.116,0.43,0.347c0,0.121-0.012,0.265-0.035,0.435c-0.042,0.303-0.079,0.771-0.111,1.406
			c-0.033,0.635-0.049,1.212-0.049,1.733c0,0.645,0.018,1.1,0.053,1.367c0.02,0.121,0.043,0.205,0.071,0.254
			s0.092,0.111,0.192,0.186c0.137,0.104,0.205,0.233,0.205,0.386c0,0.417-0.43,0.625-1.289,0.625c-0.65,0-1.192-0.091-1.625-0.273
			c-0.15-0.062-0.271-0.145-0.364-0.249s-0.14-0.21-0.14-0.317c0-0.094,0.022-0.165,0.066-0.21s0.15-0.109,0.32-0.19
			c0.191-0.094,0.287-0.287,0.287-0.576c0-0.166-0.043-0.249-0.131-0.249c-0.046,0-0.18,0.055-0.4,0.166
			c-0.212,0.104-0.476,0.156-0.791,0.156c-0.639,0-1.149-0.229-1.533-0.688c-0.41-0.495-0.615-1.108-0.615-1.841
			c0-0.746,0.264-1.343,0.791-1.792C155.815,26.971,156.504,26.746,157.356,26.743z M157.503,27.812c-0.14,0-0.27,0.077-0.391,0.229
			c-0.156,0.202-0.234,0.509-0.234,0.923c0,0.501,0.087,0.897,0.26,1.187c0.14,0.238,0.306,0.356,0.498,0.356
			c0.162,0,0.273-0.082,0.332-0.244c0.059-0.16,0.088-0.48,0.088-0.962c0-0.446-0.017-0.763-0.049-0.95
			c-0.033-0.187-0.094-0.323-0.182-0.408C157.731,27.859,157.624,27.815,157.503,27.812z"/>
		<path fill="#F9FAFD" d="M163.597,27.021v2.646c0,0.566,0.188,0.85,0.563,0.85c0.094,0,0.187-0.027,0.277-0.081
			c0.092-0.054,0.155-0.12,0.191-0.198c0.071-0.156,0.107-0.504,0.107-1.045c0-0.534-0.019-0.898-0.055-1.094
			c-0.013-0.082-0.035-0.141-0.068-0.178c-0.032-0.038-0.094-0.081-0.186-0.129c-0.186-0.098-0.277-0.221-0.277-0.371
			c0-0.202,0.159-0.342,0.479-0.42c0.605-0.15,1.202-0.225,1.791-0.225c0.329,0,0.494,0.174,0.494,0.522
			c0,0.036-0.002,0.109-0.006,0.22c-0.006,0.156-0.011,0.347-0.014,0.571v2.153c0,0.111,0.094,0.211,0.283,0.303
			c0.159,0.078,0.238,0.192,0.238,0.342c0,0.293-0.346,0.519-1.039,0.679c-0.407,0.094-0.801,0.142-1.182,0.142
			c-0.156,0-0.264-0.018-0.32-0.054s-0.09-0.106-0.1-0.21c-0.017-0.202-0.078-0.303-0.186-0.303c-0.039,0-0.075,0.009-0.107,0.027
			c-0.033,0.018-0.133,0.084-0.299,0.198c-0.328,0.225-0.682,0.337-1.059,0.337c-0.625,0-1.066-0.181-1.324-0.542
			c-0.218-0.303-0.326-0.812-0.326-1.528c0-0.267,0.001-0.495,0.004-0.684c0-0.111,0-0.186,0-0.225c0-0.28-0.025-0.486-0.075-0.618
			s-0.143-0.235-0.276-0.31c-0.127-0.065-0.207-0.117-0.241-0.156s-0.052-0.093-0.052-0.161c0-0.248,0.188-0.412,0.563-0.493
			c0.638-0.14,1.275-0.21,1.914-0.21C163.501,26.777,163.597,26.858,163.597,27.021z"/>
		<path fill="#F9FAFD" d="M170.487,26.738c0.566,0,1.046,0.143,1.439,0.43c0.209,0.153,0.354,0.328,0.438,0.525
			s0.125,0.468,0.125,0.813l-0.01,0.728c0,0.504,0.035,0.832,0.107,0.981c0.035,0.072,0.069,0.117,0.102,0.137
			c0.033,0.02,0.102,0.038,0.205,0.054c0.104,0.016,0.156,0.084,0.156,0.205c0,0.156-0.063,0.319-0.188,0.488
			s-0.287,0.311-0.486,0.425c-0.244,0.143-0.499,0.215-0.766,0.215c-0.342,0-0.612-0.117-0.811-0.352
			c-0.068-0.084-0.133-0.127-0.191-0.127c-0.064,0-0.15,0.041-0.258,0.122c-0.326,0.238-0.695,0.356-1.109,0.356
			c-0.426,0-0.771-0.091-1.035-0.273c-0.172-0.121-0.309-0.277-0.41-0.471c-0.101-0.194-0.15-0.396-0.15-0.608
			c0-0.338,0.137-0.638,0.41-0.898c0.426-0.41,1.064-0.617,1.914-0.62c0.188,0,0.307-0.019,0.355-0.056s0.074-0.125,0.074-0.261
			c0-0.345-0.036-0.595-0.107-0.75c-0.072-0.155-0.189-0.232-0.352-0.232c-0.098,0-0.186,0.029-0.262,0.088
			s-0.172,0.166-0.285,0.322c-0.29,0.414-0.593,0.62-0.908,0.62c-0.16,0-0.29-0.047-0.391-0.142
			c-0.102-0.094-0.152-0.218-0.152-0.371c0-0.156,0.063-0.313,0.188-0.469s0.296-0.293,0.511-0.41
			C169.23,26.894,169.846,26.738,170.487,26.738z M170.159,29.565c-0.143,0-0.268,0.059-0.373,0.176s-0.158,0.257-0.158,0.42
			c0,0.156,0.037,0.282,0.111,0.378c0.075,0.096,0.175,0.144,0.299,0.144c0.26,0,0.391-0.22,0.391-0.659
			c0-0.179-0.02-0.299-0.057-0.361S170.264,29.568,170.159,29.565z"/>
		<path fill="#F9FAFD" d="M176.155,27.734v1.567c0,0.693,0.012,1.097,0.032,1.211s0.102,0.202,0.241,0.264
			c0.121,0.052,0.201,0.101,0.242,0.146s0.061,0.111,0.061,0.195c0,0.107-0.037,0.205-0.114,0.293s-0.179,0.15-0.306,0.186
			c-0.234,0.072-0.629,0.107-1.186,0.107c-0.629,0-1.07-0.047-1.324-0.142c-0.117-0.042-0.213-0.108-0.287-0.198
			c-0.075-0.089-0.113-0.183-0.113-0.281c0-0.078,0.021-0.138,0.062-0.181s0.13-0.093,0.267-0.151
			c0.127-0.055,0.205-0.207,0.234-0.454c0.052-0.423,0.078-1.025,0.078-1.807c0-0.794-0.023-1.305-0.068-1.533
			c-0.046-0.228-0.16-0.397-0.342-0.508c-0.137-0.078-0.23-0.152-0.281-0.222s-0.076-0.155-0.076-0.256
			c0-0.16,0.077-0.299,0.23-0.417c0.152-0.119,0.396-0.229,0.732-0.33c0.225-0.068,0.516-0.133,0.873-0.195
			c0.358-0.062,0.619-0.093,0.781-0.093c0.258,0,0.387,0.16,0.387,0.479c0,0.104-0.017,0.343-0.049,0.718
			C176.187,26.715,176.162,27.249,176.155,27.734z"/>
		<path fill="#F9FAFD" d="M179.735,27.08v2.837c0,0.225,0.02,0.389,0.061,0.493s0.123,0.2,0.246,0.288
			c0.102,0.072,0.169,0.133,0.203,0.183s0.051,0.115,0.051,0.193c0,0.42-0.531,0.63-1.596,0.63c-0.573,0-1.027-0.045-1.363-0.137
			c-0.113-0.033-0.205-0.089-0.275-0.171s-0.105-0.174-0.105-0.278c0-0.088,0.019-0.156,0.055-0.205
			c0.035-0.049,0.127-0.127,0.273-0.234c0.101-0.075,0.172-0.197,0.215-0.366c0.042-0.169,0.063-0.421,0.063-0.757
			c0-0.107-0.007-0.309-0.021-0.603s-0.025-0.466-0.031-0.515c-0.02-0.133-0.111-0.236-0.273-0.308
			c-0.202-0.088-0.303-0.218-0.303-0.391c0-0.205,0.131-0.358,0.395-0.459c0.365-0.14,0.756-0.259,1.172-0.356
			c0.417-0.098,0.739-0.146,0.967-0.146C179.646,26.777,179.735,26.878,179.735,27.08z M178.769,24.941
			c0.283,0,0.508,0.053,0.674,0.159s0.248,0.248,0.248,0.427c0,0.25-0.125,0.449-0.375,0.596c-0.397,0.231-0.878,0.347-1.441,0.347
			c-0.237,0-0.426-0.045-0.566-0.137c-0.188-0.117-0.283-0.28-0.283-0.488c0-0.28,0.201-0.5,0.602-0.659
			C178.032,25.022,178.413,24.941,178.769,24.941z"/>
		<path fill="#F9FAFD" d="M183.485,28.022v1.65c0,0.195,0.047,0.355,0.144,0.479s0.219,0.186,0.368,0.186
			c0.127,0,0.295-0.059,0.504-0.176c0.049-0.029,0.098-0.044,0.146-0.044c0.078,0,0.149,0.047,0.215,0.142
			c0.064,0.094,0.098,0.197,0.098,0.308c0,0.202-0.111,0.396-0.332,0.581c-0.463,0.394-1.022,0.591-1.68,0.591
			c-0.521,0-0.939-0.147-1.256-0.442c-0.315-0.294-0.473-0.683-0.473-1.165v-2.256c0-0.075-0.01-0.121-0.027-0.139
			s-0.064-0.027-0.139-0.027h-0.504c-0.094,0-0.154-0.016-0.18-0.046c-0.026-0.031-0.039-0.104-0.039-0.217v-0.215
			c0.003-0.098,0.04-0.169,0.111-0.215l2.236-1.406c0.056-0.029,0.124-0.044,0.205-0.044h0.396c0.081,0,0.135,0.019,0.163,0.056
			s0.042,0.111,0.042,0.222v0.659c0,0.098,0.016,0.161,0.046,0.19s0.097,0.044,0.198,0.044h0.902c0.121,0,0.199,0.022,0.234,0.066
			c0.036,0.044,0.055,0.138,0.055,0.281v0.288c0,0.156-0.023,0.265-0.068,0.325c-0.046,0.06-0.129,0.09-0.25,0.09h-0.883
			c-0.092,0-0.153,0.016-0.186,0.049C183.501,27.869,183.485,27.931,183.485,28.022z"/>
		<path fill="#F9FAFD" d="M189.866,29.145l-0.645,1.772c-0.159,0.439-0.319,0.798-0.48,1.077s-0.344,0.515-0.549,0.71
			c-0.424,0.404-0.934,0.605-1.529,0.605c-0.481,0-0.872-0.127-1.172-0.381c-0.23-0.195-0.346-0.444-0.346-0.747
			c0-0.25,0.08-0.461,0.241-0.632s0.358-0.256,0.593-0.256s0.424,0.078,0.566,0.234c0.068,0.072,0.114,0.135,0.137,0.19
			c0.023,0.055,0.058,0.177,0.104,0.366c0.035,0.143,0.117,0.215,0.244,0.215c0.101,0,0.186-0.044,0.254-0.132
			s0.102-0.197,0.102-0.327c0-0.153-0.084-0.409-0.254-0.767l-1.176-2.505c-0.124-0.26-0.217-0.423-0.279-0.488
			c-0.062-0.065-0.198-0.145-0.41-0.239c-0.064-0.026-0.121-0.077-0.168-0.154s-0.07-0.15-0.07-0.222
			c0-0.29,0.287-0.487,0.863-0.591c0.385-0.068,0.822-0.103,1.314-0.103c0.345,0,0.616,0.036,0.814,0.107
			c0.268,0.094,0.4,0.255,0.4,0.483c0,0.082-0.037,0.177-0.111,0.288c-0.072,0.104-0.107,0.197-0.107,0.278
			c0,0.078,0.017,0.16,0.051,0.244s0.106,0.228,0.217,0.43c0.124,0.228,0.233,0.342,0.328,0.342c0.101,0,0.205-0.1,0.313-0.3
			s0.16-0.393,0.16-0.579c0-0.15-0.04-0.272-0.121-0.366c-0.124-0.146-0.186-0.272-0.186-0.376c0-0.166,0.11-0.299,0.332-0.398
			c0.221-0.099,0.518-0.149,0.889-0.149c0.689,0,1.035,0.166,1.035,0.498c0,0.121-0.035,0.217-0.105,0.291s-0.197,0.143-0.383,0.208
			c-0.156,0.059-0.28,0.156-0.371,0.293C190.217,28.284,190.052,28.644,189.866,29.145z"/>
	</g>
</g>
</svg>
