<?xml version="1.0" encoding="utf-8"?>
<!-- Generator: Adobe Illustrator 15.0.0, SVG Export Plug-In . SVG Version: 6.00 Build 0)  -->
<!DOCTYPE svg PUBLIC "-//W3C//DTD SVG 1.1//EN" "http://www.w3.org/Graphics/SVG/1.1/DTD/svg11.dtd">
<svg version="1.1" id="Layer_1" xmlns="http://www.w3.org/2000/svg" xmlns:xlink="http://www.w3.org/1999/xlink" x="0px" y="0px"
	 width="573.589px" height="579.978px" viewBox="0 0 573.589 579.978" enable-background="new 0 0 573.589 579.978"
	 xml:space="preserve">
<g>
	<defs>
		<rect id="SVGID_1_" x="-133.118" y="-8.28" width="841.89" height="595.28"/>
	</defs>
	<clipPath id="SVGID_2_">
		<use xlink:href="#SVGID_1_"  overflow="visible"/>
	</clipPath>
	<g clip-path="url(#SVGID_2_)">
		<path fill="#0018A8" d="M134.197,122.954l-4.975,2.446l-2.217-2.698l8.871-7.703l5.64-4.636c6.13-5.039,12.761-5.97,17.599-0.085
			c3.628,4.414,3.428,8.769,0.155,13.186c6.117-3.056,10.948-2.179,14.173,1.745c5.644,6.865,3.649,13.436-4.443,20.088
			l-13.977,11.489l-2.419-2.942l3.363-4.407L134.197,122.954z M151.648,126.688c4.414-3.628,5.946-7.763,2.721-11.686
			c-2.822-3.434-6.685-3.134-9.873-0.514l-5.394,4.434l8.868,10.79L151.648,126.688z M166.02,141.172
			c4.659-3.83,5.499-7.807,2.475-11.485c-4.031-4.904-8.428-3.755-13.823,0.679l-3.678,3.024l9.877,12.015L166.02,141.172z"/>
		<polygon fill="#0018A8" points="195.649,122.581 197.401,125.962 182.182,133.849 180.43,130.465 184.637,126.855 168.866,96.418 
			163.491,97.773 161.885,94.673 173.576,88.258 208.502,110.129 194.513,83.13 189.138,84.485 187.531,81.385 202.041,73.509 
			203.793,76.893 199.586,80.501 217.693,115.448 210.647,119.1 175.954,97.68 189.71,124.228 		"/>
		<path fill="#0018A8" d="M264.409,89.889c1.698,8.725-3.252,14.862-12.6,16.682c-10.282,2.002-15.675-2.446-17.131-9.924
			c-1.455-7.478,6.169-13.166,6.169-13.166s-7.729-0.501-9.173-7.917c-1.504-7.727,3.487-12.321,12.336-14.043
			c5.484-1.068,12.325,0.188,12.325,0.188l1.387,8.785l-3.988,0.776l-2.279-4.731c0,0-2.675-0.449-7.037,0.4
			c-4.985,0.97-6.993,3.948-6.265,7.688c0.849,4.362,5.134,6.438,9.496,5.589l19.319-3.761l0.727,3.74l-4.742,2.216L264.409,89.889z
			 M248.308,85.262c-4.673,0.91-8.057,5.125-7.147,9.799c1.031,5.297,4.943,7.123,10.241,6.092c5.297-1.031,7.866-4.442,6.835-9.739
			l-1.516-7.79L248.308,85.262z"/>
		<path fill="#0018A8" d="M294.073,62.354l-5.296-1.638l0.241-3.484l12.056,0.515l6.968,0.482
			c8.931,0.617,13.953,5.292,13.463,12.386c-0.425,6.144-3.501,10.132-9.088,11.782c0.952,0.957,1.979,2.683,3.406,5.964
			l4.308,10.416l4.427,1.325l-0.263,3.8l-9.501-0.657l-4.574-12.09c-2.538-6.54-3.845-7.903-8.025-8.192l-2.85-0.197l-0.985,14.251
			l5.295,1.639l-0.262,3.801l-17.418-1.204l0.262-3.801l5.472-0.894L294.073,62.354z M304.423,78.344
			c6.207,0.429,10.019-2.235,10.364-7.238c0.294-4.244-2.79-7.512-7.413-7.832l-6.651-0.46l-1.051,15.202L304.423,78.344z"/>
		<path fill="#0018A8" d="M351.473,65.821l6.2,1.405l2.951,41.767l4.75,2.581l-1.026,3.668l-17.731-4.96l1.026-3.669l6.011,0.429
			l-0.424-7.436l-15.897-4.448l-4.283,6.12l5.423,2.77l-1.026,3.668l-16.814-4.704l1.026-3.668l5.339,0.24L351.473,65.821z
			 M351.92,74.121l-11.568,16.608l12.595,3.523L351.92,74.121z"/>
		<polygon fill="#0018A8" points="377.845,118.595 376.054,121.957 360.926,113.897 362.717,110.536 368.077,111.953 
			384.194,81.696 380.028,78.039 381.669,74.957 393.585,80.944 395.391,122.115 409.687,95.275 405.522,91.619 407.164,88.537 
			421.88,96.017 420.089,99.378 414.73,97.962 396.225,132.701 389.221,128.97 387.177,88.249 373.12,114.639 		"/>
		<path fill="#0018A8" d="M442.876,113.507l5.009,3.913l-15.136,39.032l3.194,4.359l-2.491,2.88l-13.922-12.045l2.492-2.88
			l5.254,2.951l2.786-6.907l-12.481-10.799l-6.482,3.709l3.724,4.816l-2.492,2.88l-13.201-11.422l2.492-2.88l4.726,2.494
			L442.876,113.507z M439.743,121.204l-17.542,10.088l9.889,8.556L439.743,121.204z"/>
	</g>
</g>
<g>
	<g>
		<path fill="#0018A8" d="M100.26,359.017l1.492,3.666l-20.268,16.394l0.375,3.346l-2.239,0.782l-3.787-10.818l2.238-0.784
			l1.924,3.222l3.645-2.868l-3.396-9.699l-4.651-0.006l0.519,3.756l-2.239,0.783l-3.591-10.26l2.238-0.783l1.78,2.812
			L100.26,359.017z M96.182,362.203l-12.601,0.016l2.69,7.685L96.182,362.203z"/>
		<polygon fill="#0018A8" points="94.683,396.351 95.882,398.846 88.931,402.185 80.626,384.897 82.766,383.871 84.934,386.558 
			104.183,377.313 103.439,373.941 105.399,372.998 110.287,382.715 108.147,383.743 105.979,381.055 86.731,390.3 90.242,397.606 
					"/>
		<polygon fill="#0018A8" points="123.062,413.674 119.931,414.301 106.151,415.976 104.257,413.435 111.669,401.279 
			113.447,398.939 96.892,409.742 98.282,413.32 96.295,414.616 90.461,405.676 92.448,404.38 94.947,406.762 112.827,395.095 
			111.653,391.848 113.474,390.659 118.501,398.002 109.167,412.638 126.33,410.361 131.033,417.206 129.046,418.503 
			126.547,416.12 108.667,427.788 109.841,431.034 107.854,432.331 101.805,423.061 103.791,421.764 106.506,424.478 		"/>
	</g>
	<polygon fill="#0018A8" points="113.124,434.468 115.879,436.548 132.301,422.91 130.762,419.821 132.435,418.432 139.532,426.668 
		137.707,428.184 134.952,426.104 118.53,439.74 120.069,442.83 118.244,444.346 111.299,435.983 	"/>
</g>
<g>
	<defs>
		<rect id="SVGID_3_" x="-133.118" y="-8.28" width="841.89" height="595.28"/>
	</defs>
	<clipPath id="SVGID_4_">
		<use xlink:href="#SVGID_3_"  overflow="visible"/>
	</clipPath>
	<path clip-path="url(#SVGID_4_)" fill="#0018A8" d="M140.875,432.996l-1.819-2.936l1.537-1.538l5.454,5.169l3.076,3.073
		c3.944,3.94,4.394,8.188,1.265,11.321c-2.711,2.713-5.785,3.33-9.085,1.821c0.057,0.84-0.166,2.068-0.836,4.193l-2.233,6.655
		l1.539,2.431l-1.676,1.678l-4.196-4.189l2.792-7.55c1.479-4.11,1.423-5.284-0.424-7.128l-1.258-1.258l-6.286,6.293l1.818,2.935
		l-1.676,1.678l-7.692-7.683l1.676-1.679l2.937,1.815L140.875,432.996z M139.204,444.736c2.741,2.738,5.621,3.044,7.828,0.835
		c1.871-1.874,1.758-4.67-0.284-6.709l-2.937-2.934l-6.705,6.713L139.204,444.736z"/>
	<path clip-path="url(#SVGID_4_)" fill="#0018A8" d="M166.192,452.155l3.248,2.264l-8.088,24.788l2.135,2.604l-1.452,1.876
		l-9.067-7.02l1.452-1.876l3.368,1.656l1.498-4.389l-8.129-6.292l-3.906,2.525l2.479,2.869l-1.452,1.876l-8.598-6.655l1.452-1.876
		l3.024,1.392L166.192,452.155z M164.504,457.049l-10.567,6.87l6.441,4.985L164.504,457.049z"/>
	<polygon clip-path="url(#SVGID_4_)" fill="#0018A8" points="165.803,483.366 169.11,484.355 179.748,465.849 177.228,463.489 
		178.312,461.604 188.178,467.048 186.996,469.104 183.346,467.918 179.012,475.457 190.493,482.057 194.827,474.517 
		191.965,471.961 193.049,470.075 202.914,475.518 201.733,477.574 198.426,476.586 187.788,495.093 190.307,497.451 
		189.125,499.509 179.358,493.894 180.54,491.838 184.189,493.023 188.917,484.799 177.436,478.199 172.708,486.425 175.571,488.98 
		174.388,491.037 164.621,485.424 	"/>
	<path clip-path="url(#SVGID_4_)" fill="#0018A8" d="M199.947,499.793c0,0,1.265,1.594,3.638,2.578
		c2.666,1.105,6.132,1.001,7.206-1.592c2.331-5.623-11.819-8.75-8.201-17.478c2.119-5.111,7.102-5.57,11.666-3.679
		c3.469,1.439,7.099,4.654,7.099,4.654l-2.756,6.132l-2.373-0.983l0.378-4.422c0,0-1.59-1.43-3.598-2.262
		c-3.287-1.362-5.568-0.297-6.325,1.529c-2.301,5.55,11.723,8.881,8.317,17.097c-2.271,5.477-7.734,6.165-12.845,4.046
		c-3.834-1.59-6.917-4.579-6.917-4.579l2.649-6.39l2.921,1.211L199.947,499.793z"/>
	<path clip-path="url(#SVGID_4_)" fill="#0018A8" d="M235.349,490.767l-3.077-1.567l0.517-2.111l7.344,1.593l4.033,0.987
		c5.761,1.409,8.081,5.234,6.907,10.035c-1.457,5.953-6.05,8.085-12.579,6.487l-2.497-0.611l-1.691,6.914l3.076,1.566l-0.564,2.305
		l-10.562-2.585l0.564-2.305l3.453,0.032L235.349,490.767z M239.246,503.118c4.225,1.034,6.807-0.369,7.653-3.826
		c0.752-3.071-0.413-5.8-3.677-6.599l-3.841-0.94l-2.632,10.755L239.246,503.118z"/>
	<path clip-path="url(#SVGID_4_)" fill="#0018A8" d="M256.915,495.603l-3.235-1.205l0.272-2.157l7.478,0.743l4.315,0.544
		c5.532,0.697,8.491,3.78,7.937,8.174c-0.479,3.807-2.532,6.178-6.064,7.008c0.559,0.629,1.136,1.736,1.909,3.827l2.313,6.628
		l2.706,0.979l-0.296,2.354l-5.885-0.74l-2.42-7.679c-1.349-4.154-2.113-5.049-4.702-5.375l-1.766-0.223l-1.112,8.827l3.236,1.205
		l-0.297,2.354l-10.788-1.359l0.296-2.354l3.434-0.364L256.915,495.603z M262.79,505.908c3.845,0.484,6.308-1.038,6.699-4.138
		c0.331-2.629-1.471-4.768-4.335-5.13l-4.119-0.519l-1.187,9.415L262.79,505.908z"/>
	<polygon clip-path="url(#SVGID_4_)" fill="#0018A8" points="277.624,520.05 281.009,519.368 281.701,498.028 278.367,497.128 
		278.438,494.954 289.312,495.11 289.236,497.481 285.851,498.162 285.158,519.503 288.492,520.403 288.415,522.774 
		277.547,522.421 	"/>
	<polygon clip-path="url(#SVGID_4_)" fill="#0018A8" points="289.242,495.698 300.279,494.836 300.421,497.202 296.875,498.17 
		304.228,516.973 309.663,497.437 305.946,496.869 305.815,494.699 316.457,493.859 316.599,496.227 313.569,497.201 
		306.285,522.194 302.339,522.433 292.458,498.475 289.373,497.869 	"/>
	<path clip-path="url(#SVGID_4_)" fill="#0018A8" d="M325.158,492.292l3.852-0.908l13.057,22.563l3.362,0.146l0.428,2.333
		l-11.275,2.067l-0.428-2.332l3.48-1.402l-2.268-4.045l-10.109,1.853l-0.725,4.595l3.79,0.067l0.428,2.333l-10.692,1.96
		l-0.428-2.333l3.053-1.322L325.158,492.292z M327.674,496.813l-1.937,12.451l8.008-1.468L327.674,496.813z"/>
	<polygon clip-path="url(#SVGID_4_)" fill="#0018A8" points="350.244,512.46 353.799,510.56 347.62,490.124 342.7,491.611 
		342.898,495.683 340.439,496.426 338.378,489.614 359.002,483.377 361.062,490.189 358.603,490.934 356.512,487.436 
		351.593,488.922 357.773,509.356 361.786,508.969 362.472,511.239 350.93,514.731 	"/>
	<polygon clip-path="url(#SVGID_4_)" fill="#0018A8" points="379.665,487.27 380.905,490.179 372.542,493.745 376.339,502.652 
		384.703,499.087 383.879,495.141 386.244,494.133 389.034,500.678 370.671,508.507 369.741,506.326 372.522,504.281 
		364.15,484.646 360.75,485.235 359.897,483.235 366.728,480.108 377.818,475.38 380.454,481.562 378.09,482.569 375.786,479.685 
		367.968,483.018 371.301,490.835 	"/>
	<polygon clip-path="url(#SVGID_4_)" fill="#0018A8" points="412.208,478.614 414.565,477.165 418.603,483.731 402.269,493.774 
		401.028,491.755 403.476,489.32 392.294,471.136 389.018,472.222 387.879,470.369 397.037,464.508 398.279,466.527 
		395.831,468.962 407.012,487.146 413.916,482.901 	"/>
	<polygon clip-path="url(#SVGID_4_)" fill="#0018A8" points="419.851,479.801 422.091,477.174 409.452,459.97 406.275,461.322 
		404.988,459.57 413.632,452.974 415.037,454.885 412.796,457.512 425.436,474.716 428.613,473.364 430.017,475.276 
		421.255,481.712 	"/>
	<polygon clip-path="url(#SVGID_4_)" fill="#0018A8" points="436.593,439.083 437.741,442.063 441.724,455.361 439.541,457.658 
		426.306,452.41 423.698,451.056 437.15,465.543 440.44,463.566 442.054,465.306 434.231,472.568 432.616,470.83 434.542,467.964 
		420.015,452.316 417.014,454.023 415.535,452.431 421.919,446.232 437.925,452.954 432.776,436.424 438.726,430.63 440.34,432.368 
		438.416,435.234 452.942,450.882 455.943,449.176 457.557,450.913 449.444,458.445 447.83,456.707 450.044,453.571 	"/>
	<polygon clip-path="url(#SVGID_4_)" fill="#0018A8" points="458.747,445.387 460.332,442.32 444.116,428.436 441.33,430.474 
		439.678,429.06 446.599,420.673 448.4,422.216 446.815,425.283 463.031,439.167 465.817,437.128 467.619,438.671 460.548,446.929 	
		"/>
	<polygon clip-path="url(#SVGID_4_)" fill="#0018A8" points="470.728,430.911 472.391,427.237 455.046,414.787 452.049,418.964 
		454.685,422.071 453.186,424.159 447.405,420.011 459.97,402.505 465.751,406.654 464.252,408.742 460.464,407.239 
		457.467,411.415 474.812,423.865 477.76,421.114 479.687,422.498 472.655,432.294 	"/>
	<polygon clip-path="url(#SVGID_4_)" fill="#0018A8" points="478.737,393.03 481.491,394.587 477.019,402.504 485.453,407.267 
		489.925,399.349 486.871,396.717 488.134,394.479 494.331,397.978 484.513,415.362 482.448,414.195 483.412,410.882 
		464.823,400.384 462.482,402.922 460.589,401.852 464.111,395.215 470.04,384.715 475.891,388.019 474.628,390.258 
		471.043,389.367 466.865,396.769 474.265,400.948 	"/>
	<path clip-path="url(#SVGID_4_)" fill="#0018A8" d="M475.673,380.323l-2.008,2.809l-2.012-0.826l2.67-7.024l1.877-4.572
		c2.928-7.132,9.118-9.719,17.165-6.416c8.047,3.304,11.215,10.16,8.212,17.477l-4.504,10.972l-2.194-0.901l0.544-3.409
		L475.673,380.323z M498.727,380.384c1.877-4.57,0.044-8.957-6.905-11.81c-6.767-2.777-10.894-1.052-12.771,3.52l-1.802,4.39
		l19.75,8.107L498.727,380.384z"/>
</g>
<g>
	<defs>
		<rect id="SVGID_5_" x="-133.118" y="-8.28" width="841.89" height="595.28"/>
	</defs>
	<clipPath id="SVGID_6_">
		<use xlink:href="#SVGID_5_"  overflow="visible"/>
	</clipPath>
	<path clip-path="url(#SVGID_6_)" d="M372.556,418.478c0.143-6.909,0.29-14.053,0.523-21.076
		c0.783-25.306,1.251-46.251,1.468-65.908c0.144-1.318,0.239-2.624,0.283-3.898c0.452-16.373,0.941-32.742,1.431-49.111
		l0.651-21.853c0.481-21.589,1.163-43.535,1.821-64.759c0.362-11.673,0.724-23.347,1.057-35.024
		c0.028-1.052,0.067-2.103,0.106-3.155c0.105-2.904,0.217-5.908,0.116-8.898l-0.06-1.729l-1.727-0.072
		c-10.269-0.426-20.7-1.274-30.788-2.094c-7.484-0.608-15.221-1.237-22.883-1.693c-1.938-0.087-3.926-0.286-5.851-0.477
		c-2.226-0.222-4.527-0.452-6.836-0.522c-0.469-0.014-0.94-0.022-1.412-0.022c-2.993-0.6-6.018-0.79-8.945-0.975
		c-1.99-0.125-4.049-0.255-6.133-0.524c-4.861-0.356-9.718-0.765-14.574-1.174c-4.289-0.361-8.578-0.723-12.785-1.038
		c-4.062-0.497-8.193-0.811-12.184-1.115c-5.611-0.427-11.412-0.868-17.016-1.821l-0.188-0.031l-4.038,0.138l0.094,0.848
		c-2.014,0.56-4.143,1.279-6.53,2.201l-0.552,0.181c-5.88,1.928-11.961,3.92-17.921,5.992l-1.252,0.434l-0.002,1.325
		c-0.004,3.517-0.025,7.684-0.141,11.903c-0.093,2.289-0.004,4.577,0.082,6.79c0.083,2.14,0.17,4.354,0.083,6.494
		c-0.181,4.471-0.142,8.994-0.107,13.368c0.034,3.954,0.069,8.042-0.061,12.019c-0.142,3.062-0.105,6.15-0.07,9.136
		c0.024,1.983,0.046,3.965,0.02,5.911c-0.185,5.829-0.149,11.737-0.116,17.452c0.035,5.85,0.073,11.9-0.132,17.886
		c-0.008,2.244-0.008,4.488-0.009,6.732c-0.001,6.266-0.004,12.744-0.177,19.242c0.109,2.435,0.049,4.949-0.009,7.381
		c-0.074,3.049-0.15,6.201,0.098,9.342c-0.396,4.521-0.359,9.09-0.323,13.51c0.022,2.733,0.045,5.561-0.036,8.311
		c-0.223,6.492-0.228,13.08-0.231,19.45c0,3.153-0.002,6.308-0.031,9.468c-0.002,0.428-0.013,0.858-0.024,1.289
		c-0.042,1.574-0.086,3.198,0.276,4.864c-0.601,3.582-0.584,7.186-0.567,10.673c0.006,1.303,0.014,2.604-0.012,3.995
		c0.082,2.778,0.005,5.629-0.071,8.387c-0.086,3.144-0.175,6.396-0.033,9.468c-0.013,0.336-0.04,0.676-0.065,1.018
		c-0.094,1.249-0.2,2.649,0.187,4.068c-0.673,6.207-0.632,12.507-0.59,18.604c0.012,1.778,0.024,3.555,0.021,5.234
		c-0.242,4.628-0.346,9.325-0.447,13.866c-0.074,3.414-0.15,6.827-0.284,10.346c0.007,0.273-0.002,0.558-0.011,0.848
		c-0.043,1.549-0.108,3.888,1.757,5.313c2.517,2.258,5.128,4.473,7.653,6.613c0.897,0.762,1.795,1.522,2.691,2.287
		c-0.001,0.271-0.012,0.56-0.025,0.857c-0.039,1.031-0.075,2.281,0.299,3.455l0.044,0.718l0.459,0.378
		c0.27,0.432,0.617,0.838,1.088,1.196c0.421,0.354,0.831,0.736,1.24,1.119c1.145,1.067,2.446,2.235,4.083,2.972l0.075,0.063
		c0.883,1.085,1.764,2.03,2.69,2.832c4.466,3.805,8.92,7.614,13.337,11.426c0.379,0.339,0.78,0.598,1.191,0.808l-0.001,0.257
		l0.503-0.033c0.419,0.167,0.844,0.287,1.267,0.371l1.957,1.613l0.004-1.396c0.135,0.007,0.271,0.014,0.401,0.02
		c0.015,0.001,0.03,0.002,0.045,0.003l0.24,1.545l1.521-1.394l1.971,0.262l-0.168-1.432c0.254,0.017,0.507,0.057,0.761,0.063
		c1.794,0.056,3.659-0.124,5.543-0.53l0.312-0.067l1.112-0.076l0.024-1.279l0.019-0.262c0.204-2.701,0.217-5.418,0.229-8.044
		c0.009-1.793,0.017-3.635,0.088-5.454c14.106-1.853,28.204-3.723,42.289-5.616c3.287-0.409,6.566-0.868,9.849-1.327
		c5.577-0.78,11.335-1.577,17.121-2.121c0.338,0.264,0.674,0.52,1.011,0.763l-0.184,0.059l3.518,2.114
		c1.806,1.086,3.573,2.23,5.344,3.374c2.4,1.555,4.89,3.13,7.451,4.578l-0.093,1.687l2.299-0.446l1.418,0.769l0.061-1.052
		c2.927-0.559,6.111-1.126,9.302-1.353l1.606-0.114l0.12-1.606c0.298-3.902,0.354-7.841,0.387-11.683l0.203-0.013l-0.132-1.272
		c3.602-0.359,7.204-0.729,10.802-1.128l1.607-0.178l0.051-1.618C372.291,431.293,372.423,424.886,372.556,418.478"/>
	<path clip-path="url(#SVGID_6_)" fill="#332F2B" d="M241.745,176.05c-0.679,8.16-0.142,16.357-0.429,24.53
		c-0.064,6.106-0.271,12.208-0.254,18.311c0.308,10.447-0.493,20.896-0.307,31.346c0.183,8.856-0.35,17.702-0.369,26.558
		c0.141,13.069-0.531,26.131-0.377,39.201c0.133,6.852-0.443,13.693-0.2,20.547c0.112,3.543-0.03,7.09-0.119,10.632
		c-0.396,15.386-0.383,30.783-0.876,46.166c-0.094,5.182-0.296,10.365,0.067,15.544c0.024,0.353,0.066,1.064,0.089,1.423
		c0.286,3.715,0.116,7.451-0.342,11.149c0.199,8.112-0.353,16.23,0.112,24.345c5.87-0.319,11.667-1.3,17.491-2.023
		c12.982-1.634,25.934-3.431,38.911-5.094c10.344-1.483,20.762-2.346,31.125-3.666c13.328-2.017,26.831-2.74,40.111-5.063
		c0.746-15.704,0.927-31.431,1.437-47.147c0.121-4.985,0.382-9.972,0.395-14.953c-0.124-11.175,0.403-22.336,0.643-33.506
		c-0.021-3.713,0.19-7.425,0.47-11.129c-0.081-9.95,0.497-19.887,0.723-29.826c0.31-14.43,0.803-28.849,1.222-43.269
		c0.236-5.917,0.139-11.855,0.813-17.746c0.689-21.052,1.152-42.117,1.939-63.166c0.007-0.427,0.027-1.275,0.04-1.702
		c-0.25-6.254,0.337-12.5,0.231-18.756c-21.268-1.55-42.557-2.822-63.798-4.706c-22.783-1.855-45.574-3.658-68.347-5.663
		C241.575,150.938,242.113,163.494,241.745,176.05 M305.238,436.063c1.122-16.507,0.631-33.085,1.639-49.595
		c-0.393-14.343,0.45-28.669,0.698-43.002c-0.016-7.097,0.158-14.188,0.35-21.282c0.234-15.604,1.226-31.197,0.987-46.81
		c0.23-21.545,1.436-43.072,1.365-64.62c0.325-8.46,0.125-16.93,0.415-25.39c0.4-12.072,0.649-24.148,1.102-36.212
		c0.06-1.222,0.097-2.445,0.134-3.662c0.409,0.006,1.229,0.014,1.633,0.02c15.572,1.499,31.195,2.254,46.751,3.861
		c4.284,0.205,8.566,0.433,12.85,0.626c0.243,6.681-0.356,13.348-0.386,20.033c-0.267,12.849-0.8,25.69-1.165,38.543
		c-1.503,36.707-2.157,73.441-3.319,110.165c-0.315,10.053-0.268,20.123-0.964,30.165c0.092,8.271-0.252,16.545-0.704,24.805
		c0.153,5.079-0.139,10.156-0.293,15.232c0.223,8.713-0.094,17.433-0.386,26.142c-0.156,4.787-0.139,9.58-0.515,14.36
		c-2.753,0.344-5.517,0.665-8.279,0.962c-2.724,0.334-5.462,0.568-8.195,0.832c-5.259,0.748-10.535,1.339-15.813,1.964
		c-4.063,0.461-8.129,0.938-12.191,1.427C315.72,435.185,310.517,436.177,305.238,436.063 M242.987,172.792
		c0.177-4.533,0.159-9.071,0.25-13.606c-0.154-6.575-0.001-13.158,0.359-19.728c22.287,1.874,44.575,3.859,66.87,5.653
		c-0.416,9.363-0.284,18.743-0.584,28.11c-0.202,9.329-0.697,18.656-0.691,27.991c0.263,7.358-0.289,14.714-0.211,22.071
		c0.038,7.357-0.346,14.7-0.516,22.051c-0.331,8.269-0.12,16.548-0.434,24.818c-0.257,12.699-0.722,25.398-1.013,38.096
		c0.095,11.729-0.403,23.451-0.556,35.179c-0.24,7.175-0.232,14.362-0.858,21.525c0.727,13.186-0.625,26.377-0.383,39.571
		c0.109,10.521-0.78,21.037-0.476,31.566c-14.761,1.874-29.527,3.755-44.275,5.744c-6.871,0.769-13.683,2.109-20.594,2.501
		c-0.469-11.618,0.339-23.238,0.493-34.855c0.449-8.15,0.147-16.306,0.393-24.456c-0.139-8.953,0.588-17.897,0.344-26.847
		c-0.246-9.418,0.454-18.831,0.398-28.249c-0.314-13.682,0.642-27.353,0.456-41.035c0.232-9.963,0.47-19.938,0.297-29.903
		c-0.13-7.526,0.449-15.043,0.284-22.565c-0.171-8.654,0.581-17.297,0.282-25.943c-0.254-7.617,0.363-15.23,0.275-22.842
		C243,182.688,243.034,177.74,242.987,172.792"/>
	<path clip-path="url(#SVGID_6_)" fill="#FFFCF7" d="M295.556,278.324c0.924-1.548-2.246-1.136-0.998,0.155
		C294.808,278.44,295.307,278.363,295.556,278.324"/>
	<path clip-path="url(#SVGID_6_)" fill="#514D4A" d="M299.346,282.44c1.878-0.232,1.923-3.469,0.135-3.893
		c-1.277-0.339-2.615-0.385-3.925-0.223c-0.249,0.039-0.748,0.116-0.998,0.155c-0.731,0.122-1.451,0.279-2.167,0.466
		c0.498,1.106,0.994,2.212,1.499,3.318c-3.319-0.423-7.302,1.079-9.971-1.531c-0.592-0.451-1.197-0.873-1.802-1.307
		c0.069,0.972,0.079,1.965,0.298,2.93c2.96,0.465,5.975,0.25,8.954,0.404C294.023,282.804,296.744,283.129,299.346,282.44"/>
	<path clip-path="url(#SVGID_6_)" fill="#262424" d="M292.39,278.944c-2.848,0.422-6.107-0.202-8.472,1.788
		c2.67,2.609,6.652,1.107,9.971,1.531C293.385,281.156,292.888,280.05,292.39,278.944"/>
	<path clip-path="url(#SVGID_6_)" fill="#655F58" d="M296.722,292.273c-1.34-0.219-2.39,0.724-3.448,1.368
		c0.738,0.432,1.475,0.864,2.213,1.291c-0.124,0.1-0.373,0.306-0.497,0.412c-0.82-0.215-1.633-0.437-2.452-0.635
		c0.443,1.18,0.668,2.723,2.003,3.242c0.98,0.243,1.975-0.16,2.947-0.264c-0.445-0.938-0.902-1.863-1.371-2.789
		c0.708,0.062,1.417,0.124,2.119,0.185C297.786,294.118,297.354,293.136,296.722,292.273"/>
	<path clip-path="url(#SVGID_6_)" fill="#A9A59A" d="M243.597,139.457c-0.361,6.571-0.513,13.154-0.36,19.728
		c-0.091,4.536-0.072,9.074-0.25,13.606c0.047,4.95,0.013,9.896,0.111,14.847c0.088,7.612-0.529,15.226-0.274,22.843
		c0.298,8.646-0.454,17.289-0.282,25.943c0.165,7.522-0.415,15.038-0.284,22.565c0.172,9.964-0.066,19.939-0.298,29.903
		c0.187,13.682-0.769,27.354-0.455,41.035c0.055,9.418-0.645,18.83-0.398,28.248c0.243,8.951-0.484,17.896-0.344,26.848
		c-0.247,8.15,0.055,16.306-0.393,24.455c-0.155,11.617-0.963,23.238-0.494,34.856c6.911-0.391,13.724-1.732,20.594-2.5
		c14.748-1.991,29.515-3.871,44.277-5.746c-0.306-10.528,0.584-21.043,0.476-31.566c-0.242-13.192,1.108-26.385,0.382-39.569
		c0.626-7.164,0.619-14.353,0.858-21.526c0.152-11.727,0.651-23.449,0.556-35.178c0.292-12.698,0.756-25.397,1.013-38.097
		c0.314-8.269,0.102-16.549,0.433-24.818c0.171-7.35,0.555-14.694,0.517-22.05c-0.077-7.358,0.474-14.714,0.212-22.071
		c-0.007-9.336,0.489-18.662,0.689-27.992c0.301-9.367,0.169-18.746,0.585-28.11C288.171,143.316,265.883,141.332,243.597,139.457
		 M292.538,294.71c0.819,0.198,1.632,0.419,2.452,0.635c0.124-0.105,0.373-0.313,0.497-0.413c-0.738-0.426-1.475-0.857-2.213-1.291
		c1.059-0.643,2.108-1.587,3.448-1.368c0.632,0.863,1.063,1.847,1.514,2.813c-0.702-0.063-1.41-0.124-2.119-0.187
		c0.469,0.928,0.926,1.854,1.371,2.79c-0.973,0.104-1.967,0.507-2.947,0.264C293.206,297.433,292.981,295.89,292.538,294.71
		 M282.117,279.425c0.605,0.434,1.21,0.856,1.802,1.307c2.364-1.989,5.624-1.365,8.472-1.787c0.716-0.187,1.436-0.344,2.167-0.466
		c-1.248-1.291,1.922-1.703,0.998-0.155c1.31-0.162,2.647-0.116,3.925,0.223c1.788,0.424,1.743,3.661-0.135,3.893
		c-2.603,0.689-5.323,0.364-7.978,0.319c-2.979-0.154-5.995,0.061-8.954-0.404C282.196,281.39,282.186,280.397,282.117,279.425"/>
	<path clip-path="url(#SVGID_6_)" fill="#A9A59A" d="M307.924,322.184c0.235-15.604,1.226-31.197,0.988-46.809
		c0.229-21.546,1.435-43.073,1.364-64.621c0.325-8.46,0.125-16.929,0.415-25.39c0.4-12.072,0.649-24.148,1.101-36.212
		c0.061-1.222,0.098-2.445,0.134-3.662c0.41,0.006,1.23,0.014,1.634,0.02c15.571,1.499,31.194,2.254,46.751,3.862
		c4.283,0.204,8.566,0.432,12.851,0.625c0.242,6.681-0.357,13.349-0.387,20.033c-0.268,12.849-0.8,25.691-1.165,38.543
		c-1.503,36.707-2.156,73.441-3.318,110.165c-0.316,10.053-0.269,20.124-0.964,30.165c0.09,8.271-0.252,16.545-0.704,24.805
		c0.151,5.079-0.141,10.157-0.293,15.233c0.222,8.712-0.095,17.432-0.387,26.141c-0.155,4.787-0.14,9.58-0.515,14.36
		c-2.753,0.344-5.517,0.665-8.279,0.962c-2.724,0.334-5.462,0.569-8.194,0.832c-5.259,0.748-10.536,1.339-15.815,1.964
		c-4.061,0.461-8.128,0.938-12.189,1.427c-5.23,0.559-10.434,1.551-15.712,1.437c1.121-16.506,0.63-33.085,1.637-49.596
		c-0.393-14.342,0.452-28.669,0.7-43.002C307.559,336.369,307.733,329.278,307.924,322.184"/>
	<path clip-path="url(#SVGID_6_)" fill="#A9A59A" d="M238.002,154.72c-0.078,31.797-0.26,63.615-0.991,95.404
		c-0.478-2.884-0.597-5.815-0.509-8.733c-0.014-15.762,0.242-31.516,0.407-47.272c-0.064-5.723,0.658-11.44,0.057-17.151
		C237.537,169.561,236.937,162.089,238.002,154.72"/>
	<path clip-path="url(#SVGID_6_)" fill="#A9A59A" d="M374.018,169.212c0.007-0.427,0.026-1.275,0.04-1.702
		c0.062,1.971,0.141,3.942,0.098,5.915c-0.54,17.494-1.098,34.994-1.529,52.491c-0.064,2.163-0.303,4.31-0.547,6.462
		C372.768,211.327,373.232,190.262,374.018,169.212"/>
	<path clip-path="url(#SVGID_6_)" fill="#5B5653" d="M210.297,142.63c-0.005,3.989-0.033,7.983-0.142,11.975
		c-0.18,4.429,0.344,8.855,0.164,13.284c-0.342,8.465,0.106,16.931-0.167,25.398c-0.233,5.004,0.02,10.017-0.05,15.021
		c-0.373,11.76,0.154,23.525-0.247,35.285c-0.03,8.63,0.05,17.252-0.188,25.882c0.252,5.602-0.362,11.224,0.098,16.815
		c-0.653,7.266-0.152,14.584-0.367,21.875c-0.331,9.62-0.178,19.243-0.261,28.864c-0.009,2.027-0.222,4.099,0.29,6.088
		c-0.874,4.841-0.521,9.776-0.617,14.669c0.177,5.998-0.368,11.992-0.105,17.987c-0.066,1.597-0.382,3.285,0.154,4.831
		c-0.905,7.992-0.578,16.085-0.602,24.115c-0.421,8.018-0.416,16.054-0.728,24.076c0.032,1.634-0.37,3.659,1.125,4.808
		c3.575,3.209,7.275,6.271,10.922,9.395c0.228,2.021-0.642,4.634,1.243,6.07c1.689,1.42,3.198,3.261,5.322,4.029
		c3.184,0.287,5.214,2.848,7.722,4.482c2.395,1.557,5.046-0.36,7.273-1.293c-0.687-0.552-1.351-1.126-2.015-1.699
		c5.664-0.794,11.273-2.206,17.017-2.199c-2.126,0.985-4.386,1.645-6.689,2.037c-0.341,3.234-0.208,6.482,0.191,9.706
		c0.206,1.218-0.12,2.432-0.831,3.433c2.363,0.331,4.752,0.178,7.076-0.323c0.377-5,0.083-10.009,0.39-15.005
		c14.619-1.919,29.232-3.855,43.846-5.822c9.255-1.151,18.464-2.697,27.755-3.525c1.352-0.201,2.693-0.467,4.039-0.674
		c4.107-0.286,8.193-0.792,12.273-1.339c4.441-0.795,8.896-1.497,13.396-1.916c4.215-0.409,8.431-0.854,12.643-1.32
		c0.417-13.428,0.541-26.864,0.987-40.297c0.682-21.982,1.227-43.974,1.469-65.963c0.143-1.277,0.239-2.557,0.283-3.836
		c0.652-23.657,1.384-47.307,2.082-70.956c0.74-33.273,1.93-66.526,2.878-99.793c0.109-3.98,0.356-7.956,0.224-11.938
		c-17.923-0.744-35.766-2.721-53.677-3.788c-4.739-0.212-9.442-1.042-14.201-1.018c-4.945-1.021-10.03-0.852-15.028-1.505
		c-9.153-0.669-18.296-1.529-27.449-2.221c-9.744-1.19-19.601-1.303-29.285-2.947c-0.613,0.022-1.225,0.038-1.838,0.06l0.05,0.452
		c-2.716,0.663-5.371,1.57-7.982,2.576C222.582,138.486,216.424,140.5,210.297,142.63 M241.746,176.05
		c0.368-12.557-0.17-25.114,0.4-37.665c22.773,2.005,45.563,3.808,68.347,5.663c21.241,1.884,42.528,3.156,63.798,4.706
		c0.104,6.256-0.482,12.502-0.233,18.756c0.063,1.971,0.142,3.942,0.1,5.915c-0.541,17.494-1.1,34.994-1.529,52.492
		c-0.066,2.163-0.304,4.309-0.548,6.461c-0.675,5.891-0.577,11.829-0.814,17.746c-0.418,14.42-0.912,28.839-1.221,43.269
		c-0.225,9.939-0.803,19.876-0.723,29.826c-0.279,3.704-0.49,7.416-0.47,11.129c-0.238,11.17-0.767,22.331-0.643,33.506
		c-0.012,4.981-0.273,9.968-0.396,14.953c-0.509,15.717-0.69,31.443-1.437,47.147c-13.279,2.323-26.782,3.047-40.11,5.063
		c-10.362,1.32-20.78,2.183-31.126,3.666c-12.976,1.663-25.928,3.46-38.91,5.094c-5.824,0.724-11.621,1.704-17.491,2.023
		c-0.465-8.114,0.086-16.232-0.113-24.345c0.458-3.698,0.629-7.435,0.343-11.149c-0.024-0.359-0.066-1.07-0.09-1.423
		c-0.363-5.179-0.16-10.362-0.067-15.544c0.494-15.383,0.48-30.78,0.876-46.166c0.09-3.542,0.232-7.089,0.12-10.632
		c-0.244-6.854,0.333-13.695,0.199-20.547c-0.153-13.069,0.519-26.132,0.377-39.201c0.02-8.856,0.553-17.702,0.37-26.558
		c-0.186-10.45,0.614-20.899,0.307-31.346c-0.018-6.103,0.19-12.205,0.253-18.311C241.604,192.407,241.065,184.21,241.746,176.05"/>
	<path clip-path="url(#SVGID_6_)" fill="#4B433D" d="M357.584,438.961c-4.499,0.419-8.954,1.121-13.395,1.916
		c0.479,0.032,1.434,0.091,1.913,0.116c-4.341,2.091-8.893,3.686-13.475,5.163c4.62,2.779,9.011,5.942,13.76,8.517
		c0.252-4.513-0.085-9.037,0.288-13.548c1.268,0.073,2.529,0.163,3.792,0.248c0.143,4.23-0.142,8.472,0.043,12.708
		c0.533-4.464,0.259-8.964,0.723-13.43c2.159-0.183,4.318-0.349,6.476-0.491C357.678,439.859,357.615,439.263,357.584,438.961"/>
	<path clip-path="url(#SVGID_6_)" fill="#A9A59A" d="M357.709,440.16c-2.158,0.144-4.316,0.309-6.475,0.491
		c-0.465,4.466-0.19,8.966-0.725,13.43c-0.183-4.236,0.102-8.478-0.043-12.708c-1.262-0.084-2.522-0.175-3.791-0.248
		c-0.373,4.511-0.037,9.035-0.289,13.548l-0.023,0.433c3.63-0.704,7.259-1.392,10.949-1.655
		C357.649,449.026,357.673,444.594,357.709,440.16"/>
	<path clip-path="url(#SVGID_6_)" fill="#181412" d="M346.103,440.993c-0.479-0.026-1.436-0.084-1.913-0.116
		c-4.081,0.547-8.167,1.053-12.274,1.338c-1.346,0.208-2.688,0.473-4.039,0.675c1.487,1.229,3.102,2.276,4.752,3.268
		C337.209,444.679,341.762,443.085,346.103,440.993"/>
	<path clip-path="url(#SVGID_6_)" fill="#A9A59A" d="M256.138,452.389c-5.744-0.006-11.353,1.406-17.017,2.199
		c0.664,0.574,1.328,1.149,2.015,1.701c0.824,0.631,1.69,1.2,2.544,1.797c0.206-1.073,0.417-2.146,0.623-3.214
		c1.19-0.213,2.379-0.419,3.569-0.62c-0.015,4.705-0.637,9.433,0.087,14.113c0.214-0.196,0.636-0.6,0.85-0.8
		c0.711-1,1.037-2.214,0.831-3.434c-0.399-3.222-0.532-6.471-0.191-9.705C251.752,454.035,254.012,453.375,256.138,452.389"/>
	<path clip-path="url(#SVGID_6_)" fill="#A9A59A" d="M233.864,457.581c-2.508-1.635-4.538-4.195-7.722-4.482
		c0.834,1.064,1.744,2.074,2.774,2.965c4.469,3.807,8.926,7.619,13.371,11.455c1.563,1.397,3.803,1.026,5.723,1.281l-0.05-0.435
		c-0.725-4.681-0.103-9.408-0.087-14.113c-1.19,0.201-2.38,0.407-3.57,0.619c-0.205,1.068-0.417,2.142-0.622,3.215
		c-0.854-0.598-1.72-1.167-2.544-1.798C238.909,457.221,236.259,459.138,233.864,457.581"/>
	<polygon clip-path="url(#SVGID_6_)" fill="#181412" points="219.577,442.999 235.452,455.014 244.145,453.93 244.104,467.977 
		219.884,448 	"/>
	<polygon clip-path="url(#SVGID_6_)" fill="#A9A59A" points="256.138,452.389 244.145,453.93 244.105,467.978 255.868,467.178 	"/>
</g>
<polygon fill="#0018A8" points="88.075,222.694 92.631,231.928 102.823,233.409 95.449,240.597 97.189,250.746 88.075,245.954 
	78.959,250.746 80.701,240.597 73.327,233.409 83.518,231.928 "/>
<polygon fill="#0018A8" points="493.872,222.694 498.429,231.928 508.62,233.409 501.246,240.597 502.987,250.746 493.872,245.954 
	484.757,250.746 486.498,240.597 479.124,233.409 489.315,231.928 "/>
<g>
	<defs>
		<rect id="SVGID_7_" x="-133.118" y="-8.28" width="841.89" height="595.28"/>
	</defs>
	<clipPath id="SVGID_8_">
		<use xlink:href="#SVGID_7_"  overflow="visible"/>
	</clipPath>
	<path clip-path="url(#SVGID_8_)" fill="#0018A8" d="M120.384,46.734C171.953,14.263,234.337,0.201,294.932,4.65
		c13.934,0.204,27.715,4.244,41.7,2.378c14.905-2.046,28.635,5.548,42.646,9.357c31.678,9.204,59.342,28.047,85.625,47.427
		c34.132,28.866,63.33,64.2,81.636,105.235c38.402,76.881,34.977,171.071-2.734,247.492c-22.244,44.23-55.839,82.146-95.673,111.371
		c-73.864,52.105-173.448,66.908-258.792,36.355C108.47,537.6,42.557,470.562,16.07,389.77c-6.52-19.021-12.963-38.3-14.855-58.422
		c-3.758-36.868-2.71-74.682,7.287-110.552c3.937-11.915,11.479-22.142,16.976-33.366c-7.44,22.653-13.755,45.791-16.286,69.543
		c-4.142,34.209-0.563,68.878,6.98,102.346c8.13,39.195,27.664,75.245,51.492,107.051c18.23,21.731,38.581,42.646,63.458,56.708
		c-10.84-11.53-24.826-19.432-35.973-30.604c-14.548-13.985-25.593-31.038-36.868-47.605c-26.36-40.014-39.578-87.39-43.567-134.816
		c-1.534-27.357,1.867-54.714,6.674-81.611c4.167-22.883,15.851-43.234,23.777-64.864c-5.42,1.355-9.971,4.474-13.806,8.463
		c0.716-2.173,1.406-4.347,2.122-6.494c-3.349-5.242-10.406-10.892-7.108-17.718c5.241-11.403,13.5-21.042,20.352-31.448
		C65.619,87.896,92.976,66.522,120.384,46.734 M257.501,48.983c-41.393,5.139-81.585,20.531-115.155,45.331
		c-42.723,31.218-75.193,76.421-90.099,127.274C36.677,272.569,38.85,328.74,57.846,378.52
		c17.77,47.453,51.109,88.771,93.244,116.817c32.726,22.116,71.077,35.411,110.272,39.731c43.184,4.729,87.39-3.12,126.891-20.99
		c46.276-21.119,85.395-57.245,110.681-101.323c41.163-71.154,42.544-163.35,3.4-235.628
		C478.25,131.642,439.31,94.161,392.957,71.814C351.282,51.157,303.599,43.793,257.501,48.983 M91.544,110.038
		c-6.647,7.389-13.499,14.88-17.744,23.982c-8.309,10.457-14.522,22.346-22.601,32.982c-7.466,9.997-10.559,22.269-14.701,33.8
		c0.128-1.636,0.409-4.909,0.537-6.545c-5.906,7.874-8.514,17.488-10.994,26.845c-9.358,33.11-10.125,68.086-6.469,102.143
		c2.608,27.587,11.557,54.049,21.298,79.82c1.968,6.622,6.34,12.145,9.997,17.922c-2.455-11.633-3.35-24.084-10.457-34.081
		c-4.577-19.252-12.401-37.787-15.136-57.552c-6.239-33.263-1.1-67.114,4.5-100.07c6.622-19.022,12.323-38.53,21.987-56.325
		c6.034-12.579,14.753-23.624,20.761-36.203c18.025-21.042,36.791-41.828,59.47-57.987c13.32-10.15,28.584-17.206,42.441-26.487
		C142.449,64.017,114.478,85.11,91.544,110.038 M98.524,481.862c50.777,53.154,125.944,80.026,198.939,75.68
		c-25.977-3.35-52.464-3.528-77.878-10.482C175.098,534.711,131.992,514.23,98.524,481.862"/>
</g>
</svg>
