<?xml version="1.0" encoding="utf-8"?>
<!-- Generator: Adobe Illustrator 15.0.0, SVG Export Plug-In . SVG Version: 6.00 Build 0)  -->
<!DOCTYPE svg PUBLIC "-//W3C//DTD SVG 1.1//EN" "http://www.w3.org/Graphics/SVG/1.1/DTD/svg11.dtd">
<svg version="1.1" id="Layer_1" xmlns="http://www.w3.org/2000/svg" xmlns:xlink="http://www.w3.org/1999/xlink" x="0px" y="0px"
	 width="841.89px" height="595.28px" viewBox="0 0 841.89 595.28" enable-background="new 0 0 841.89 595.28" xml:space="preserve">
<g>
	<defs>
		<rect id="SVGID_1_" width="841.89" height="595.28"/>
	</defs>
	<clipPath id="SVGID_2_">
		<use xlink:href="#SVGID_1_"  overflow="visible"/>
	</clipPath>
	<g clip-path="url(#SVGID_2_)">
		<path fill="#0018A8" d="M267.314,131.234l-4.975,2.446l-2.217-2.698l8.871-7.703l5.64-4.636c6.13-5.039,12.761-5.97,17.599-0.085
			c3.628,4.414,3.428,8.769,0.155,13.186c6.117-3.056,10.948-2.179,14.173,1.745c5.644,6.865,3.649,13.436-4.443,20.088
			l-13.977,11.489l-2.419-2.942l3.363-4.407L267.314,131.234z M284.766,134.968c4.414-3.628,5.946-7.763,2.721-11.686
			c-2.822-3.434-6.685-3.134-9.873-0.514l-5.394,4.434l8.868,10.79L284.766,134.968z M299.138,149.452
			c4.659-3.83,5.499-7.807,2.475-11.485c-4.031-4.904-8.428-3.755-13.823,0.679l-3.678,3.024l9.877,12.015L299.138,149.452z"/>
		<polygon fill="#0018A8" points="328.767,130.861 330.519,134.243 315.3,142.129 313.547,138.746 317.754,135.136 301.983,104.699 
			296.608,106.054 295.002,102.954 306.693,96.539 341.62,118.41 327.63,91.411 322.255,92.766 320.648,89.666 335.159,81.79 
			336.911,85.173 332.704,88.782 350.811,123.729 343.765,127.38 309.072,105.96 322.828,132.508 		"/>
		<path fill="#0018A8" d="M397.527,98.169c1.698,8.725-3.252,14.862-12.6,16.682c-10.282,2.002-15.675-2.446-17.131-9.924
			c-1.455-7.478,6.169-13.166,6.169-13.166s-7.729-0.501-9.173-7.917c-1.504-7.727,3.487-12.321,12.336-14.043
			c5.484-1.068,12.325,0.188,12.325,0.188l1.387,8.785l-3.988,0.776l-2.279-4.731c0,0-2.675-0.449-7.037,0.4
			c-4.985,0.97-6.993,3.948-6.265,7.688c0.849,4.362,5.134,6.438,9.496,5.589l19.319-3.761l0.727,3.74l-4.742,2.216L397.527,98.169z
			 M381.426,93.542c-4.673,0.91-8.057,5.125-7.147,9.799c1.031,5.297,4.943,7.123,10.241,6.092c5.297-1.031,7.866-4.442,6.835-9.739
			l-1.516-7.79L381.426,93.542z"/>
		<path fill="#0018A8" d="M427.19,70.634l-5.296-1.638l0.241-3.484l12.056,0.515l6.968,0.482
			c8.931,0.617,13.953,5.292,13.463,12.386c-0.425,6.144-3.501,10.132-9.088,11.782c0.952,0.957,1.979,2.683,3.406,5.964
			l4.308,10.416l4.427,1.325l-0.263,3.8l-9.501-0.657l-4.574-12.09c-2.538-6.54-3.845-7.903-8.025-8.192l-2.85-0.197l-0.985,14.251
			l5.295,1.639l-0.262,3.801l-17.418-1.204l0.262-3.801l5.472-0.894L427.19,70.634z M437.541,86.624
			c6.207,0.429,10.019-2.235,10.364-7.238c0.294-4.244-2.79-7.512-7.413-7.832l-6.651-0.46l-1.051,15.202L437.541,86.624z"/>
		<path fill="#0018A8" d="M484.591,74.102l6.2,1.405l2.951,41.767l4.75,2.581l-1.026,3.668l-17.731-4.96l1.026-3.669l6.011,0.429
			l-0.424-7.436l-15.897-4.448l-4.283,6.12l5.423,2.77l-1.026,3.668l-16.814-4.704l1.026-3.668l5.339,0.24L484.591,74.102z
			 M485.038,82.401L473.47,99.01l12.595,3.523L485.038,82.401z"/>
		<polygon fill="#0018A8" points="510.963,126.875 509.172,130.237 494.044,122.178 495.835,118.816 501.194,120.233 
			517.312,89.977 513.146,86.319 514.787,83.237 526.703,89.225 528.509,130.395 542.805,103.556 538.64,99.899 540.281,96.817 
			554.998,104.297 553.207,107.659 547.848,106.243 529.343,140.981 522.339,137.25 520.295,96.529 506.237,122.919 		"/>
		<path fill="#0018A8" d="M575.994,121.787l5.009,3.913l-15.136,39.032l3.194,4.359l-2.491,2.88l-13.922-12.045l2.492-2.88
			l5.254,2.951l2.786-6.907l-12.481-10.799L544.217,146l3.724,4.816l-2.492,2.88l-13.201-11.422l2.492-2.88l4.726,2.494
			L575.994,121.787z M572.86,129.484l-17.542,10.088l9.889,8.556L572.86,129.484z"/>
	</g>
</g>
<g>
	<g>
		<path fill="#0018A8" d="M233.377,367.297l1.492,3.666l-20.268,16.394l0.375,3.346l-2.239,0.782l-3.787-10.818l2.238-0.784
			l1.924,3.222l3.645-2.868l-3.396-9.699l-4.651-0.006l0.519,3.756l-2.239,0.783l-3.591-10.26l2.238-0.783l1.78,2.812
			L233.377,367.297z M229.299,370.483l-12.601,0.016l2.69,7.685L229.299,370.483z"/>
		<polygon fill="#0018A8" points="227.8,404.631 229,407.126 222.048,410.465 213.744,393.178 215.883,392.151 218.051,394.838 
			237.3,385.593 236.557,382.222 238.517,381.278 243.404,390.995 241.265,392.023 239.097,389.335 219.849,398.58 223.359,405.887 
					"/>
		<polygon fill="#0018A8" points="256.18,421.954 253.049,422.581 239.269,424.256 237.375,421.715 244.787,409.56 246.564,407.22 
			230.01,418.022 231.4,421.601 229.413,422.896 223.579,413.956 225.565,412.66 228.064,415.042 245.945,403.375 244.771,400.128 
			246.592,398.939 251.619,406.282 242.285,420.918 259.448,418.642 264.151,425.486 262.164,426.783 259.665,424.4 
			241.785,436.068 242.958,439.314 240.972,440.611 234.923,431.341 236.909,430.044 239.624,432.758 		"/>
	</g>
	<polygon fill="#0018A8" points="246.242,442.748 248.997,444.828 265.418,431.19 263.88,428.102 265.553,426.712 272.65,434.948 
		270.825,436.464 268.07,434.384 251.647,448.021 253.187,451.11 251.362,452.626 244.417,444.264 	"/>
</g>
<g>
	<defs>
		<rect id="SVGID_3_" width="841.89" height="595.28"/>
	</defs>
	<clipPath id="SVGID_4_">
		<use xlink:href="#SVGID_3_"  overflow="visible"/>
	</clipPath>
	<path clip-path="url(#SVGID_4_)" fill="#0018A8" d="M273.992,441.276l-1.819-2.936l1.537-1.538l5.454,5.169l3.076,3.073
		c3.944,3.94,4.394,8.188,1.265,11.321c-2.711,2.713-5.785,3.33-9.085,1.821c0.057,0.84-0.166,2.068-0.836,4.193l-2.233,6.655
		l1.539,2.431l-1.676,1.678l-4.196-4.189l2.792-7.55c1.479-4.11,1.423-5.284-0.424-7.128l-1.258-1.258l-6.286,6.293l1.818,2.935
		l-1.676,1.678l-7.692-7.683l1.676-1.679l2.937,1.815L273.992,441.276z M272.321,453.017c2.741,2.738,5.621,3.044,7.828,0.835
		c1.871-1.874,1.758-4.67-0.284-6.709l-2.937-2.934l-6.705,6.713L272.321,453.017z"/>
	<path clip-path="url(#SVGID_4_)" fill="#0018A8" d="M299.31,460.436l3.248,2.264l-8.088,24.788l2.135,2.604l-1.452,1.876
		l-9.067-7.02l1.452-1.876l3.368,1.656l1.498-4.389l-8.129-6.292l-3.906,2.525l2.479,2.869l-1.452,1.876l-8.598-6.655l1.452-1.876
		l3.024,1.392L299.31,460.436z M297.622,465.329l-10.567,6.87l6.441,4.985L297.622,465.329z"/>
	<polygon clip-path="url(#SVGID_4_)" fill="#0018A8" points="298.92,491.646 302.228,492.636 312.865,474.129 310.345,471.77 
		311.429,469.885 321.295,475.328 320.113,477.384 316.463,476.198 312.129,483.737 323.61,490.337 327.944,482.797 
		325.083,480.241 326.167,478.355 336.031,483.798 334.851,485.854 331.543,484.866 320.905,503.373 323.424,505.731 
		322.242,507.789 312.476,502.174 313.657,500.118 317.307,501.304 322.034,493.079 310.553,486.479 305.826,494.705 
		308.688,497.261 307.505,499.317 297.738,493.704 	"/>
	<path clip-path="url(#SVGID_4_)" fill="#0018A8" d="M333.064,508.073c0,0,1.265,1.594,3.638,2.578
		c2.666,1.105,6.132,1.001,7.206-1.592c2.331-5.623-11.819-8.75-8.201-17.478c2.119-5.111,7.102-5.57,11.666-3.679
		c3.469,1.439,7.099,4.654,7.099,4.654l-2.756,6.132l-2.373-0.983l0.378-4.422c0,0-1.59-1.43-3.598-2.262
		c-3.287-1.362-5.568-0.297-6.325,1.529c-2.301,5.55,11.723,8.881,8.317,17.097c-2.271,5.477-7.734,6.165-12.845,4.046
		c-3.834-1.59-6.917-4.579-6.917-4.579l2.649-6.39l2.921,1.211L333.064,508.073z"/>
	<path clip-path="url(#SVGID_4_)" fill="#0018A8" d="M368.467,499.047l-3.077-1.567l0.517-2.111l7.344,1.593l4.033,0.987
		c5.761,1.409,8.081,5.234,6.907,10.035c-1.457,5.953-6.05,8.085-12.579,6.487l-2.497-0.611l-1.691,6.914l3.076,1.566l-0.564,2.305
		l-10.562-2.585l0.564-2.305l3.453,0.032L368.467,499.047z M372.364,511.398c4.225,1.034,6.807-0.369,7.653-3.826
		c0.752-3.071-0.413-5.8-3.677-6.599l-3.841-0.94l-2.632,10.755L372.364,511.398z"/>
	<path clip-path="url(#SVGID_4_)" fill="#0018A8" d="M390.033,503.883l-3.235-1.205l0.272-2.157l7.478,0.743l4.315,0.544
		c5.532,0.697,8.491,3.78,7.937,8.174c-0.479,3.807-2.532,6.178-6.064,7.008c0.559,0.629,1.136,1.736,1.909,3.827l2.313,6.628
		l2.706,0.979l-0.296,2.354l-5.885-0.74l-2.42-7.679c-1.349-4.154-2.113-5.049-4.702-5.375l-1.766-0.223l-1.112,8.827l3.236,1.205
		l-0.297,2.354l-10.788-1.359l0.296-2.354l3.434-0.364L390.033,503.883z M395.908,514.188c3.845,0.484,6.308-1.038,6.699-4.138
		c0.331-2.629-1.471-4.768-4.335-5.13l-4.119-0.519l-1.187,9.415L395.908,514.188z"/>
	<polygon clip-path="url(#SVGID_4_)" fill="#0018A8" points="410.742,528.33 414.126,527.648 414.819,506.309 411.485,505.408 
		411.556,503.234 422.43,503.391 422.354,505.762 418.969,506.442 418.276,527.783 421.609,528.684 421.532,531.055 
		410.665,530.701 	"/>
	<polygon clip-path="url(#SVGID_4_)" fill="#0018A8" points="422.359,503.979 433.396,503.116 433.539,505.482 429.993,506.45 
		437.346,525.253 442.78,505.717 439.063,505.149 438.933,502.979 449.574,502.14 449.717,504.507 446.687,505.481 439.402,530.475 
		435.457,530.713 425.576,506.755 422.49,506.149 	"/>
	<path clip-path="url(#SVGID_4_)" fill="#0018A8" d="M458.275,500.572l3.852-0.908l13.057,22.563l3.362,0.146l0.428,2.333
		l-11.275,2.067l-0.428-2.332l3.48-1.402l-2.268-4.045l-10.109,1.853l-0.725,4.595l3.79,0.067l0.428,2.333l-10.692,1.96
		l-0.428-2.333l3.053-1.322L458.275,500.572z M460.792,505.093l-1.937,12.451l8.008-1.468L460.792,505.093z"/>
	<polygon clip-path="url(#SVGID_4_)" fill="#0018A8" points="483.361,520.74 486.917,518.84 480.737,498.404 475.817,499.892 
		476.016,503.963 473.557,504.706 471.496,497.895 492.12,491.657 494.18,498.47 491.721,499.214 489.63,495.716 484.711,497.202 
		490.891,517.637 494.903,517.249 495.59,519.52 484.048,523.012 	"/>
	<polygon clip-path="url(#SVGID_4_)" fill="#0018A8" points="512.782,495.55 514.022,498.459 505.659,502.025 509.457,510.933 
		517.82,507.367 516.997,503.421 519.361,502.413 522.151,508.958 503.789,516.787 502.858,514.606 505.64,512.562 497.268,492.926 
		493.867,493.516 493.015,491.516 499.846,488.389 510.936,483.66 513.571,489.842 511.208,490.85 508.903,487.965 501.086,491.298 
		504.419,499.115 	"/>
	<polygon clip-path="url(#SVGID_4_)" fill="#0018A8" points="545.325,486.895 547.683,485.445 551.721,492.012 535.387,502.055 
		534.146,500.035 536.594,497.601 525.412,479.416 522.136,480.502 520.997,478.649 530.154,472.788 531.396,474.808 
		528.948,477.242 540.13,495.427 547.033,491.182 	"/>
	<polygon clip-path="url(#SVGID_4_)" fill="#0018A8" points="552.969,488.081 555.209,485.454 542.569,468.25 539.393,469.603 
		538.105,467.851 546.75,461.254 548.154,463.165 545.914,465.792 558.554,482.996 561.73,481.645 563.135,483.557 554.373,489.992 
			"/>
	<polygon clip-path="url(#SVGID_4_)" fill="#0018A8" points="569.711,447.363 570.858,450.344 574.842,463.642 572.658,465.938 
		559.424,460.69 556.815,459.336 570.268,473.823 573.558,471.847 575.172,473.586 567.349,480.849 565.733,479.11 567.659,476.244 
		553.133,460.597 550.132,462.304 548.652,460.711 555.037,454.513 571.043,461.234 565.894,444.704 571.844,438.91 
		573.458,440.648 571.533,443.515 586.06,459.162 589.061,457.456 590.675,459.193 582.562,466.726 580.947,464.987 
		583.162,461.852 	"/>
	<polygon clip-path="url(#SVGID_4_)" fill="#0018A8" points="591.864,453.667 593.449,450.601 577.233,436.716 574.447,438.754 
		572.796,437.34 579.717,428.953 581.518,430.496 579.933,433.563 596.148,447.447 598.935,445.408 600.736,446.951 
		593.666,455.209 	"/>
	<polygon clip-path="url(#SVGID_4_)" fill="#0018A8" points="603.846,439.191 605.509,435.518 588.164,423.067 585.167,427.244 
		587.803,430.352 586.304,432.439 580.522,428.291 593.088,410.785 598.869,414.935 597.37,417.022 593.582,415.52 590.585,419.695 
		607.93,432.146 610.878,429.395 612.805,430.778 605.772,440.574 	"/>
	<polygon clip-path="url(#SVGID_4_)" fill="#0018A8" points="611.854,401.311 614.608,402.867 610.137,410.784 618.57,415.547 
		623.043,407.629 619.988,404.997 621.252,402.759 627.448,406.258 617.631,423.643 615.565,422.476 616.529,419.162 
		597.94,408.664 595.6,411.202 593.707,410.132 597.229,403.495 603.157,392.995 609.009,396.299 607.746,398.538 604.161,397.647 
		599.982,405.049 607.383,409.229 	"/>
	<path clip-path="url(#SVGID_4_)" fill="#0018A8" d="M608.791,388.604l-2.008,2.809l-2.012-0.826l2.67-7.024l1.877-4.572
		c2.928-7.132,9.118-9.719,17.165-6.416c8.047,3.304,11.215,10.16,8.212,17.477l-4.504,10.972l-2.194-0.901l0.544-3.409
		L608.791,388.604z M631.845,388.664c1.877-4.57,0.044-8.957-6.905-11.81c-6.767-2.777-10.894-1.052-12.771,3.52l-1.802,4.39
		l19.75,8.107L631.845,388.664z"/>
</g>
<g>
	<defs>
		<rect id="SVGID_5_" width="841.89" height="595.28"/>
	</defs>
	<clipPath id="SVGID_6_">
		<use xlink:href="#SVGID_5_"  overflow="visible"/>
	</clipPath>
	<path clip-path="url(#SVGID_6_)" d="M505.674,426.758c0.143-6.909,0.29-14.053,0.523-21.076
		c0.783-25.306,1.251-46.251,1.468-65.908c0.144-1.318,0.239-2.624,0.283-3.898c0.452-16.373,0.941-32.742,1.431-49.111
		l0.651-21.853c0.481-21.589,1.163-43.535,1.821-64.759c0.362-11.673,0.724-23.347,1.057-35.024
		c0.028-1.052,0.067-2.103,0.106-3.155c0.105-2.904,0.217-5.908,0.116-8.898l-0.06-1.729l-1.727-0.072
		c-10.269-0.426-20.7-1.274-30.788-2.094c-7.484-0.608-15.221-1.237-22.883-1.693c-1.938-0.087-3.926-0.286-5.851-0.477
		c-2.226-0.222-4.527-0.452-6.836-0.522c-0.469-0.014-0.94-0.022-1.412-0.022c-2.993-0.6-6.018-0.79-8.945-0.975
		c-1.99-0.125-4.049-0.255-6.133-0.524c-4.861-0.356-9.718-0.765-14.574-1.174c-4.289-0.361-8.578-0.723-12.785-1.038
		c-4.062-0.497-8.193-0.811-12.184-1.115c-5.611-0.427-11.412-0.868-17.016-1.821l-0.188-0.031l-4.038,0.138l0.094,0.848
		c-2.014,0.56-4.143,1.279-6.53,2.201l-0.552,0.181c-5.88,1.928-11.961,3.92-17.921,5.992l-1.252,0.434l-0.002,1.325
		c-0.004,3.517-0.025,7.684-0.141,11.903c-0.093,2.289-0.004,4.577,0.082,6.79c0.083,2.14,0.17,4.354,0.083,6.494
		c-0.181,4.471-0.142,8.994-0.107,13.368c0.034,3.954,0.069,8.042-0.061,12.019c-0.142,3.062-0.105,6.15-0.07,9.136
		c0.024,1.983,0.046,3.965,0.02,5.911c-0.185,5.829-0.149,11.737-0.116,17.452c0.035,5.85,0.073,11.9-0.132,17.886
		c-0.008,2.244-0.008,4.488-0.009,6.732c-0.001,6.266-0.004,12.744-0.177,19.242c0.109,2.435,0.049,4.949-0.009,7.381
		c-0.074,3.049-0.15,6.201,0.098,9.342c-0.396,4.521-0.359,9.09-0.323,13.51c0.022,2.733,0.045,5.561-0.036,8.311
		c-0.223,6.492-0.228,13.08-0.231,19.45c0,3.153-0.002,6.308-0.031,9.468c-0.002,0.428-0.013,0.858-0.024,1.289
		c-0.042,1.574-0.086,3.198,0.276,4.864c-0.601,3.582-0.584,7.186-0.567,10.673c0.006,1.303,0.014,2.604-0.012,3.995
		c0.082,2.778,0.005,5.629-0.071,8.387c-0.086,3.144-0.175,6.396-0.033,9.468c-0.013,0.336-0.04,0.676-0.065,1.018
		c-0.094,1.249-0.2,2.649,0.187,4.068c-0.673,6.207-0.632,12.507-0.59,18.604c0.012,1.778,0.024,3.555,0.021,5.234
		c-0.242,4.628-0.346,9.325-0.447,13.866c-0.074,3.414-0.15,6.827-0.284,10.346c0.007,0.273-0.002,0.558-0.011,0.848
		c-0.043,1.549-0.108,3.888,1.757,5.313c2.517,2.258,5.128,4.473,7.653,6.613c0.897,0.762,1.795,1.522,2.691,2.287
		c-0.001,0.271-0.012,0.56-0.025,0.857c-0.039,1.031-0.075,2.281,0.299,3.455l0.044,0.718l0.459,0.378
		c0.27,0.432,0.617,0.838,1.088,1.196c0.421,0.354,0.831,0.736,1.24,1.119c1.145,1.067,2.446,2.235,4.083,2.972l0.075,0.063
		c0.883,1.085,1.764,2.03,2.69,2.832c4.466,3.805,8.92,7.614,13.337,11.426c0.379,0.339,0.78,0.598,1.191,0.808l-0.001,0.257
		l0.503-0.033c0.419,0.167,0.844,0.287,1.267,0.371l1.957,1.613l0.004-1.396c0.135,0.007,0.271,0.014,0.401,0.02
		c0.015,0.001,0.03,0.002,0.045,0.003l0.24,1.545l1.521-1.394l1.971,0.262l-0.168-1.432c0.254,0.017,0.507,0.057,0.761,0.063
		c1.794,0.056,3.659-0.124,5.543-0.53l0.312-0.067l1.112-0.076l0.024-1.279l0.019-0.262c0.204-2.701,0.217-5.418,0.229-8.044
		c0.009-1.793,0.017-3.635,0.088-5.454c14.106-1.853,28.204-3.723,42.289-5.616c3.287-0.409,6.566-0.868,9.849-1.327
		c5.577-0.78,11.335-1.577,17.121-2.121c0.338,0.264,0.674,0.52,1.011,0.763l-0.184,0.059l3.518,2.114
		c1.806,1.086,3.573,2.23,5.344,3.374c2.4,1.555,4.89,3.13,7.451,4.578l-0.093,1.687l2.299-0.446l1.418,0.769l0.061-1.052
		c2.927-0.559,6.111-1.126,9.302-1.353l1.606-0.114l0.12-1.606c0.298-3.902,0.354-7.841,0.387-11.683l0.203-0.013l-0.132-1.272
		c3.602-0.359,7.204-0.729,10.802-1.128l1.607-0.178l0.051-1.618C505.408,439.573,505.541,433.166,505.674,426.758"/>
	<path clip-path="url(#SVGID_6_)" fill="#332F2B" d="M374.863,184.331c-0.679,8.16-0.142,16.357-0.429,24.53
		c-0.064,6.106-0.271,12.208-0.254,18.311c0.308,10.447-0.493,20.896-0.307,31.346c0.183,8.856-0.35,17.702-0.369,26.558
		c0.141,13.069-0.531,26.131-0.377,39.201c0.133,6.852-0.443,13.693-0.2,20.547c0.112,3.543-0.03,7.09-0.119,10.632
		c-0.396,15.386-0.383,30.783-0.876,46.166c-0.094,5.182-0.296,10.365,0.067,15.544c0.024,0.353,0.066,1.064,0.089,1.423
		c0.286,3.715,0.116,7.451-0.342,11.149c0.199,8.112-0.353,16.23,0.112,24.345c5.87-0.319,11.667-1.3,17.491-2.023
		c12.982-1.634,25.934-3.431,38.911-5.094c10.344-1.483,20.762-2.346,31.125-3.666c13.328-2.017,26.831-2.74,40.111-5.063
		c0.746-15.704,0.927-31.431,1.437-47.147c0.121-4.985,0.382-9.972,0.395-14.953c-0.124-11.175,0.403-22.336,0.643-33.506
		c-0.021-3.713,0.19-7.425,0.47-11.129c-0.081-9.95,0.497-19.887,0.723-29.826c0.31-14.43,0.803-28.849,1.222-43.269
		c0.236-5.917,0.139-11.855,0.813-17.746c0.689-21.052,1.152-42.117,1.939-63.166c0.007-0.427,0.027-1.275,0.04-1.702
		c-0.25-6.254,0.337-12.5,0.231-18.756c-21.268-1.55-42.557-2.822-63.798-4.706c-22.783-1.855-45.574-3.658-68.347-5.663
		C374.693,159.218,375.23,171.774,374.863,184.331 M438.355,444.343c1.122-16.507,0.631-33.085,1.639-49.595
		c-0.393-14.343,0.45-28.669,0.698-43.002c-0.016-7.097,0.158-14.188,0.35-21.282c0.234-15.604,1.226-31.197,0.987-46.81
		c0.23-21.545,1.436-43.072,1.365-64.62c0.325-8.46,0.125-16.93,0.415-25.39c0.4-12.072,0.649-24.148,1.102-36.212
		c0.06-1.222,0.097-2.445,0.134-3.662c0.409,0.006,1.229,0.014,1.633,0.02c15.572,1.499,31.195,2.254,46.751,3.861
		c4.284,0.205,8.566,0.433,12.85,0.626c0.243,6.681-0.356,13.348-0.386,20.033c-0.267,12.849-0.8,25.69-1.165,38.543
		c-1.503,36.707-2.157,73.441-3.319,110.165c-0.315,10.053-0.268,20.123-0.964,30.165c0.092,8.271-0.252,16.545-0.704,24.805
		c0.153,5.079-0.139,10.156-0.293,15.232c0.223,8.713-0.094,17.433-0.386,26.142c-0.156,4.787-0.139,9.58-0.515,14.36
		c-2.753,0.344-5.517,0.665-8.279,0.962c-2.724,0.334-5.462,0.568-8.195,0.832c-5.259,0.748-10.535,1.339-15.813,1.964
		c-4.063,0.461-8.129,0.938-12.191,1.427C448.838,443.465,443.635,444.457,438.355,444.343 M376.104,181.072
		c0.177-4.533,0.159-9.071,0.25-13.606c-0.154-6.575-0.001-13.158,0.359-19.728c22.287,1.874,44.575,3.859,66.87,5.653
		c-0.416,9.363-0.284,18.743-0.584,28.11c-0.202,9.329-0.697,18.656-0.691,27.991c0.263,7.358-0.289,14.714-0.211,22.071
		c0.038,7.357-0.346,14.7-0.516,22.051c-0.331,8.269-0.12,16.548-0.434,24.818c-0.257,12.699-0.722,25.398-1.013,38.096
		c0.095,11.729-0.403,23.451-0.556,35.179c-0.24,7.175-0.232,14.362-0.858,21.525c0.727,13.186-0.625,26.377-0.383,39.571
		c0.109,10.521-0.78,21.037-0.476,31.566c-14.761,1.874-29.527,3.755-44.275,5.744c-6.871,0.769-13.683,2.109-20.594,2.501
		c-0.469-11.618,0.339-23.238,0.493-34.855c0.449-8.15,0.147-16.306,0.393-24.456c-0.139-8.953,0.588-17.897,0.344-26.847
		c-0.246-9.418,0.454-18.831,0.398-28.249c-0.314-13.682,0.642-27.353,0.456-41.035c0.232-9.963,0.47-19.938,0.297-29.903
		c-0.13-7.526,0.449-15.043,0.284-22.565c-0.171-8.654,0.581-17.297,0.282-25.943c-0.254-7.617,0.363-15.23,0.275-22.842
		C376.118,190.968,376.152,186.021,376.104,181.072"/>
	<path clip-path="url(#SVGID_6_)" fill="#FFFCF7" d="M428.674,286.604c0.924-1.548-2.246-1.136-0.998,0.155
		C427.926,286.721,428.425,286.644,428.674,286.604"/>
	<path clip-path="url(#SVGID_6_)" fill="#514D4A" d="M432.464,290.72c1.878-0.232,1.923-3.469,0.135-3.893
		c-1.277-0.339-2.615-0.385-3.925-0.223c-0.249,0.039-0.748,0.116-0.998,0.155c-0.731,0.122-1.451,0.279-2.167,0.466
		c0.498,1.106,0.994,2.212,1.499,3.318c-3.319-0.423-7.302,1.079-9.971-1.531c-0.592-0.451-1.197-0.873-1.802-1.307
		c0.069,0.972,0.079,1.965,0.298,2.93c2.96,0.465,5.975,0.25,8.954,0.404C427.141,291.084,429.861,291.409,432.464,290.72"/>
	<path clip-path="url(#SVGID_6_)" fill="#262424" d="M425.508,287.225c-2.848,0.422-6.107-0.202-8.472,1.788
		c2.67,2.609,6.652,1.107,9.971,1.531C426.503,289.437,426.006,288.331,425.508,287.225"/>
	<path clip-path="url(#SVGID_6_)" fill="#655F58" d="M429.84,300.554c-1.34-0.219-2.39,0.724-3.448,1.368
		c0.738,0.432,1.475,0.864,2.213,1.291c-0.124,0.1-0.373,0.306-0.497,0.412c-0.82-0.215-1.633-0.437-2.452-0.635
		c0.443,1.18,0.668,2.723,2.003,3.242c0.98,0.243,1.975-0.16,2.947-0.264c-0.445-0.938-0.902-1.863-1.371-2.789
		c0.708,0.062,1.417,0.124,2.119,0.185C430.903,302.398,430.472,301.416,429.84,300.554"/>
	<path clip-path="url(#SVGID_6_)" fill="#A9A59A" d="M376.714,147.737c-0.361,6.571-0.513,13.154-0.36,19.728
		c-0.091,4.536-0.072,9.074-0.25,13.606c0.047,4.95,0.013,9.896,0.111,14.847c0.088,7.612-0.529,15.226-0.274,22.843
		c0.298,8.646-0.454,17.289-0.282,25.943c0.165,7.522-0.415,15.038-0.284,22.565c0.172,9.964-0.066,19.939-0.298,29.903
		c0.187,13.682-0.769,27.354-0.455,41.035c0.055,9.418-0.645,18.83-0.398,28.248c0.243,8.951-0.484,17.896-0.344,26.848
		c-0.247,8.15,0.055,16.306-0.393,24.455c-0.155,11.617-0.963,23.238-0.494,34.856c6.911-0.391,13.724-1.732,20.594-2.5
		c14.748-1.991,29.515-3.871,44.277-5.746c-0.306-10.528,0.584-21.043,0.476-31.566c-0.242-13.192,1.108-26.385,0.382-39.569
		c0.626-7.164,0.619-14.353,0.858-21.526c0.152-11.727,0.651-23.449,0.556-35.178c0.292-12.698,0.756-25.397,1.013-38.097
		c0.314-8.269,0.102-16.549,0.433-24.818c0.171-7.35,0.555-14.694,0.517-22.05c-0.077-7.358,0.474-14.714,0.212-22.071
		c-0.007-9.336,0.489-18.662,0.689-27.992c0.301-9.367,0.169-18.746,0.585-28.11C421.289,151.596,399,149.612,376.714,147.737
		 M425.655,302.99c0.819,0.198,1.632,0.419,2.452,0.635c0.124-0.105,0.373-0.313,0.497-0.413c-0.738-0.426-1.475-0.857-2.213-1.291
		c1.059-0.643,2.108-1.587,3.448-1.368c0.632,0.863,1.063,1.847,1.514,2.813c-0.702-0.063-1.41-0.124-2.119-0.187
		c0.469,0.928,0.926,1.854,1.371,2.79c-0.973,0.104-1.967,0.507-2.947,0.264C426.323,305.713,426.099,304.17,425.655,302.99
		 M415.234,287.705c0.605,0.434,1.21,0.856,1.802,1.307c2.364-1.989,5.624-1.365,8.472-1.787c0.716-0.187,1.436-0.344,2.167-0.466
		c-1.248-1.291,1.922-1.703,0.998-0.155c1.31-0.162,2.647-0.116,3.925,0.223c1.788,0.424,1.743,3.661-0.135,3.893
		c-2.603,0.689-5.323,0.364-7.978,0.319c-2.979-0.154-5.995,0.061-8.954-0.404C415.313,289.67,415.304,288.677,415.234,287.705"/>
	<path clip-path="url(#SVGID_6_)" fill="#A9A59A" d="M441.042,330.464c0.235-15.604,1.226-31.197,0.988-46.809
		c0.229-21.546,1.435-43.073,1.364-64.621c0.325-8.46,0.125-16.929,0.415-25.39c0.4-12.072,0.649-24.148,1.101-36.212
		c0.061-1.222,0.098-2.445,0.134-3.662c0.41,0.006,1.23,0.014,1.634,0.02c15.571,1.499,31.194,2.254,46.751,3.862
		c4.283,0.204,8.566,0.432,12.851,0.625c0.242,6.681-0.357,13.349-0.387,20.033c-0.268,12.849-0.8,25.691-1.165,38.543
		c-1.503,36.707-2.156,73.441-3.318,110.165c-0.316,10.053-0.269,20.124-0.964,30.165c0.09,8.271-0.252,16.545-0.704,24.805
		c0.151,5.079-0.141,10.157-0.293,15.233c0.222,8.712-0.095,17.432-0.387,26.141c-0.155,4.787-0.14,9.58-0.515,14.36
		c-2.753,0.344-5.517,0.665-8.279,0.962c-2.724,0.334-5.462,0.569-8.194,0.832c-5.259,0.748-10.536,1.339-15.815,1.964
		c-4.061,0.461-8.128,0.938-12.189,1.427c-5.23,0.559-10.434,1.551-15.712,1.437c1.121-16.506,0.63-33.085,1.637-49.596
		c-0.393-14.342,0.452-28.669,0.7-43.002C440.677,344.649,440.851,337.559,441.042,330.464"/>
	<path clip-path="url(#SVGID_6_)" fill="#A9A59A" d="M371.12,163c-0.078,31.797-0.26,63.615-0.991,95.404
		c-0.478-2.884-0.597-5.815-0.509-8.733c-0.014-15.762,0.242-31.516,0.407-47.272c-0.064-5.723,0.658-11.44,0.057-17.151
		C370.654,177.841,370.054,170.369,371.12,163"/>
	<path clip-path="url(#SVGID_6_)" fill="#A9A59A" d="M507.136,177.493c0.007-0.427,0.026-1.275,0.04-1.702
		c0.062,1.971,0.141,3.942,0.098,5.915c-0.54,17.494-1.098,34.994-1.529,52.491c-0.064,2.163-0.303,4.31-0.547,6.462
		C505.886,219.607,506.35,198.542,507.136,177.493"/>
	<path clip-path="url(#SVGID_6_)" fill="#5B5653" d="M343.415,150.911c-0.005,3.989-0.033,7.983-0.142,11.975
		c-0.18,4.429,0.344,8.855,0.164,13.284c-0.342,8.465,0.106,16.931-0.167,25.398c-0.233,5.004,0.02,10.017-0.05,15.021
		c-0.373,11.76,0.154,23.525-0.247,35.285c-0.03,8.63,0.05,17.252-0.188,25.882c0.252,5.602-0.362,11.224,0.098,16.815
		c-0.653,7.266-0.152,14.584-0.367,21.875c-0.331,9.62-0.178,19.243-0.261,28.864c-0.009,2.027-0.222,4.099,0.29,6.088
		c-0.874,4.841-0.521,9.776-0.617,14.669c0.177,5.998-0.368,11.992-0.105,17.987c-0.066,1.597-0.382,3.285,0.154,4.831
		c-0.905,7.992-0.578,16.085-0.602,24.115c-0.421,8.018-0.416,16.054-0.728,24.076c0.032,1.634-0.37,3.659,1.125,4.808
		c3.575,3.209,7.275,6.271,10.922,9.395c0.228,2.021-0.642,4.634,1.243,6.07c1.689,1.42,3.198,3.261,5.322,4.029
		c3.184,0.287,5.214,2.848,7.722,4.482c2.395,1.557,5.046-0.36,7.273-1.293c-0.687-0.552-1.351-1.126-2.015-1.699
		c5.664-0.794,11.273-2.206,17.017-2.199c-2.126,0.985-4.386,1.645-6.689,2.037c-0.341,3.234-0.208,6.482,0.191,9.706
		c0.206,1.218-0.12,2.432-0.831,3.433c2.363,0.331,4.752,0.178,7.076-0.323c0.377-5,0.083-10.009,0.39-15.005
		c14.619-1.919,29.232-3.855,43.846-5.822c9.255-1.151,18.464-2.697,27.755-3.525c1.352-0.201,2.693-0.467,4.039-0.674
		c4.107-0.286,8.193-0.792,12.273-1.339c4.441-0.795,8.896-1.497,13.396-1.916c4.215-0.409,8.431-0.854,12.643-1.32
		c0.417-13.428,0.541-26.864,0.987-40.297c0.682-21.982,1.227-43.974,1.469-65.963c0.143-1.277,0.239-2.557,0.283-3.836
		c0.652-23.657,1.384-47.307,2.082-70.956c0.74-33.273,1.93-66.526,2.878-99.793c0.109-3.98,0.356-7.956,0.224-11.938
		c-17.923-0.744-35.766-2.721-53.677-3.788c-4.739-0.212-9.442-1.042-14.201-1.018c-4.945-1.021-10.03-0.852-15.028-1.505
		c-9.153-0.669-18.296-1.529-27.449-2.221c-9.744-1.19-19.601-1.303-29.285-2.947c-0.613,0.022-1.225,0.038-1.838,0.06l0.05,0.452
		c-2.716,0.663-5.371,1.57-7.982,2.576C355.699,146.767,349.542,148.781,343.415,150.911 M374.863,184.331
		c0.368-12.557-0.17-25.114,0.4-37.665c22.773,2.005,45.563,3.808,68.347,5.663c21.241,1.884,42.528,3.156,63.798,4.706
		c0.104,6.256-0.482,12.502-0.233,18.756c0.063,1.971,0.142,3.942,0.1,5.915c-0.541,17.494-1.1,34.994-1.529,52.492
		c-0.066,2.163-0.304,4.309-0.548,6.461c-0.675,5.891-0.577,11.829-0.814,17.746c-0.418,14.42-0.912,28.839-1.221,43.269
		c-0.225,9.939-0.803,19.876-0.723,29.826c-0.279,3.704-0.49,7.416-0.47,11.129c-0.238,11.17-0.767,22.331-0.643,33.506
		c-0.012,4.981-0.273,9.968-0.396,14.953c-0.509,15.717-0.69,31.443-1.437,47.147c-13.279,2.323-26.782,3.047-40.11,5.063
		c-10.362,1.32-20.78,2.183-31.126,3.666c-12.976,1.663-25.928,3.46-38.91,5.094c-5.824,0.724-11.621,1.704-17.491,2.023
		c-0.465-8.114,0.086-16.232-0.113-24.345c0.458-3.698,0.629-7.435,0.343-11.149c-0.024-0.359-0.066-1.07-0.09-1.423
		c-0.363-5.179-0.16-10.362-0.067-15.544c0.494-15.383,0.48-30.78,0.876-46.166c0.09-3.542,0.232-7.089,0.12-10.632
		c-0.244-6.854,0.333-13.695,0.199-20.547c-0.153-13.069,0.519-26.132,0.377-39.201c0.02-8.856,0.553-17.702,0.37-26.558
		c-0.186-10.45,0.614-20.899,0.307-31.346c-0.018-6.103,0.19-12.205,0.253-18.311C374.721,200.688,374.183,192.491,374.863,184.331"
		/>
	<path clip-path="url(#SVGID_6_)" fill="#4B433D" d="M490.702,447.241c-4.499,0.419-8.954,1.121-13.395,1.916
		c0.479,0.032,1.434,0.091,1.913,0.116c-4.341,2.091-8.893,3.686-13.475,5.163c4.62,2.779,9.011,5.942,13.76,8.517
		c0.252-4.513-0.085-9.037,0.288-13.548c1.268,0.073,2.529,0.163,3.792,0.248c0.143,4.23-0.142,8.472,0.043,12.708
		c0.533-4.464,0.259-8.964,0.723-13.43c2.159-0.183,4.318-0.349,6.476-0.491C490.796,448.14,490.732,447.543,490.702,447.241"/>
	<path clip-path="url(#SVGID_6_)" fill="#A9A59A" d="M490.827,448.44c-2.158,0.144-4.316,0.309-6.475,0.491
		c-0.465,4.466-0.19,8.966-0.725,13.43c-0.183-4.236,0.102-8.478-0.043-12.708c-1.262-0.084-2.522-0.175-3.791-0.248
		c-0.373,4.511-0.037,9.035-0.289,13.548l-0.023,0.433c3.63-0.704,7.259-1.392,10.949-1.655
		C490.767,457.307,490.791,452.874,490.827,448.44"/>
	<path clip-path="url(#SVGID_6_)" fill="#181412" d="M479.221,449.273c-0.479-0.026-1.436-0.084-1.913-0.116
		c-4.081,0.547-8.167,1.053-12.274,1.338c-1.346,0.208-2.688,0.473-4.039,0.675c1.487,1.229,3.102,2.276,4.752,3.268
		C470.327,452.959,474.88,451.365,479.221,449.273"/>
	<path clip-path="url(#SVGID_6_)" fill="#A9A59A" d="M389.256,460.669c-5.744-0.006-11.353,1.406-17.017,2.199
		c0.664,0.574,1.328,1.149,2.015,1.701c0.824,0.631,1.69,1.2,2.544,1.797c0.206-1.073,0.417-2.146,0.623-3.214
		c1.19-0.213,2.379-0.419,3.569-0.62c-0.015,4.705-0.637,9.433,0.087,14.113c0.214-0.196,0.636-0.6,0.85-0.8
		c0.711-1,1.037-2.214,0.831-3.434c-0.399-3.222-0.532-6.471-0.191-9.705C384.87,462.315,387.13,461.655,389.256,460.669"/>
	<path clip-path="url(#SVGID_6_)" fill="#A9A59A" d="M366.981,465.861c-2.508-1.635-4.538-4.195-7.722-4.482
		c0.834,1.064,1.744,2.074,2.774,2.965c4.469,3.807,8.926,7.619,13.371,11.455c1.563,1.397,3.803,1.026,5.723,1.281l-0.05-0.435
		c-0.725-4.681-0.103-9.408-0.087-14.113c-1.19,0.201-2.38,0.407-3.57,0.619c-0.205,1.068-0.417,2.142-0.622,3.215
		c-0.854-0.598-1.72-1.167-2.544-1.798C372.026,465.501,369.376,467.418,366.981,465.861"/>
	<polygon clip-path="url(#SVGID_6_)" fill="#181412" points="352.694,451.279 368.569,463.294 377.262,462.21 377.222,476.257 
		353.001,456.28 	"/>
	<polygon clip-path="url(#SVGID_6_)" fill="#A9A59A" points="389.256,460.669 377.262,462.21 377.223,476.258 388.986,475.458 	"/>
</g>
<polygon fill="#0018A8" points="221.192,230.975 225.749,240.208 235.94,241.689 228.566,248.877 230.307,259.026 221.192,254.234 
	212.077,259.026 213.818,248.877 206.444,241.689 216.635,240.208 "/>
<polygon fill="#0018A8" points="626.989,230.975 631.547,240.208 641.737,241.689 634.363,248.877 636.104,259.026 626.989,254.234 
	617.875,259.026 619.615,248.877 612.241,241.689 622.433,240.208 "/>
<g>
	<defs>
		<rect id="SVGID_7_" width="841.89" height="595.28"/>
	</defs>
	<clipPath id="SVGID_8_">
		<use xlink:href="#SVGID_7_"  overflow="visible"/>
	</clipPath>
	<path clip-path="url(#SVGID_8_)" fill="#0018A8" d="M253.501,55.014C305.071,22.543,367.455,8.481,428.05,12.93
		c13.934,0.204,27.715,4.244,41.7,2.378c14.905-2.046,28.635,5.548,42.646,9.357c31.678,9.204,59.342,28.047,85.625,47.427
		c34.132,28.866,63.33,64.2,81.636,105.235c38.402,76.881,34.977,171.071-2.734,247.492c-22.244,44.23-55.839,82.146-95.673,111.371
		c-73.864,52.105-173.448,66.908-258.792,36.355c-80.869-26.666-146.782-93.704-173.269-174.496
		c-6.52-19.021-12.963-38.3-14.855-58.422c-3.758-36.868-2.71-74.682,7.287-110.552c3.937-11.915,11.479-22.142,16.976-33.366
		c-7.44,22.653-13.755,45.791-16.286,69.543c-4.142,34.209-0.563,68.878,6.98,102.346c8.13,39.195,27.664,75.245,51.492,107.051
		c18.23,21.731,38.581,42.646,63.458,56.708c-10.84-11.53-24.826-19.432-35.973-30.604c-14.548-13.985-25.593-31.038-36.868-47.605
		c-26.36-40.014-39.578-87.39-43.567-134.816c-1.534-27.357,1.867-54.714,6.674-81.611c4.167-22.883,15.851-43.234,23.777-64.864
		c-5.42,1.355-9.971,4.474-13.806,8.463c0.716-2.173,1.406-4.347,2.122-6.494c-3.349-5.242-10.406-10.892-7.108-17.718
		c5.241-11.403,13.5-21.042,20.352-31.448C198.737,96.177,226.094,74.803,253.501,55.014 M390.619,57.263
		c-41.393,5.139-81.585,20.531-115.155,45.331c-42.723,31.218-75.193,76.421-90.099,127.274
		c-15.57,50.981-13.397,107.152,5.599,156.932c17.77,47.453,51.109,88.771,93.244,116.817
		c32.726,22.116,71.077,35.411,110.272,39.731c43.184,4.729,87.39-3.12,126.891-20.99c46.276-21.119,85.395-57.245,110.681-101.323
		c41.163-71.154,42.544-163.35,3.4-235.628c-24.084-45.485-63.023-82.966-109.377-105.313
		C484.399,59.437,436.717,52.073,390.619,57.263 M224.662,118.318c-6.647,7.389-13.499,14.88-17.744,23.982
		c-8.309,10.457-14.522,22.346-22.601,32.982c-7.466,9.997-10.559,22.269-14.701,33.8c0.128-1.636,0.409-4.909,0.537-6.545
		c-5.906,7.874-8.514,17.488-10.994,26.845c-9.358,33.11-10.125,68.086-6.469,102.143c2.608,27.587,11.557,54.049,21.298,79.82
		c1.968,6.622,6.34,12.145,9.997,17.922c-2.455-11.633-3.35-24.084-10.457-34.081c-4.577-19.252-12.401-37.787-15.136-57.552
		c-6.239-33.263-1.1-67.114,4.5-100.07c6.622-19.022,12.323-38.53,21.987-56.325c6.034-12.579,14.753-23.624,20.761-36.203
		c18.025-21.042,36.791-41.828,59.47-57.987c13.32-10.15,28.584-17.206,42.441-26.487C275.567,72.297,247.596,93.39,224.662,118.318
		 M231.642,490.143c50.777,53.154,125.944,80.026,198.939,75.68c-25.977-3.35-52.464-3.528-77.878-10.482
		C308.216,542.991,265.11,522.511,231.642,490.143"/>
</g>
</svg>
